<?xml version="1.0" encoding="utf-8" ?>
<svg xmlns="http://www.w3.org/2000/svg" xmlns:xlink="http://www.w3.org/1999/xlink" width="1024" height="1024">
	<path fill="white" d="M0 0L1024 0L1024 1024L0 1024L0 0Z"/>
	<path d="M511.397 10.5527C516.69 11.0562 522.362 14.4817 527.091 16.7995C548.841 27.459 570.262 38.9032 591.827 49.9363L815.095 166.7L872.982 197.062C882.253 201.862 895.092 207.528 903.49 212.982C904.642 213.73 905.601 214.619 906.535 215.619C906.656 221.46 905.047 227.376 903.944 233.081C902.574 240.166 901.402 247.271 901.082 254.494C900.073 277.246 906.985 298.587 922.471 315.467C939.337 333.851 958.84 338.485 982.743 339.563C984.05 340.321 985.439 341.144 986.488 342.248C989.832 345.77 988.647 384.138 988.566 391.632Q988.31 416.962 986.66 442.24Q985.009 467.518 981.969 492.666C971.445 573.008 944.947 660.103 905.223 730.85Q899.937 740.076 894.339 749.117Q888.742 758.157 882.839 767.002Q876.936 775.846 870.734 784.483Q864.532 793.121 858.04 801.542Q851.547 809.963 844.771 818.157Q837.994 826.351 830.942 834.309Q823.89 842.268 816.57 849.981Q809.251 857.693 801.672 865.152Q798.551 868.242 795.378 871.278Q792.205 874.314 788.981 877.295Q785.757 880.276 782.482 883.202Q779.207 886.128 775.883 888.998Q772.559 891.868 769.186 894.68Q765.814 897.493 762.394 900.247Q758.974 903.002 755.507 905.698Q752.04 908.394 748.528 911.03Q745.016 913.666 741.46 916.242Q737.903 918.818 734.303 921.333Q730.703 923.848 727.061 926.301Q723.418 928.754 719.735 931.145Q716.051 933.536 712.327 935.863Q708.603 938.191 704.84 940.454Q701.077 942.718 697.276 944.917Q693.475 947.116 689.637 949.25Q685.798 951.384 681.924 953.452Q678.05 955.52 674.142 957.522Q670.233 959.524 666.291 961.459Q662.349 963.393 658.374 965.26Q654.399 967.128 650.393 968.927Q646.387 970.726 642.351 972.457Q638.315 974.187 634.25 975.849Q630.185 977.51 626.092 979.102Q621.999 980.694 617.88 982.216Q613.761 983.737 609.616 985.189Q605.471 986.64 601.302 988.02Q597.134 989.401 592.942 990.71Q588.75 992.019 584.536 993.256Q580.323 994.494 576.089 995.659Q571.855 996.824 567.602 997.917Q563.348 999.01 559.077 1000.03C547.234 1002.78 521.824 1008.69 510.335 1008.56C466.584 1002.91 422.365 989.976 381.823 972.716C245.269 914.577 138.482 793.325 83.8442 656.803C48.3916 568.219 36.0303 478.623 33.9527 383.847C33.7832 376.115 32.0875 349.353 34.7346 343.709C35.7254 341.597 37.4967 340.065 39.6995 339.322C43.8067 337.935 48.734 338.782 53.0081 338.526C60.0297 338.105 67.8191 335.826 74.3189 333.209C108.061 319.621 125.733 285.597 122.474 250.132Q121.625 241.517 119.897 233.034C118.977 228.611 117.65 224.051 117.271 219.548C117.094 217.456 117.092 215.595 117.922 213.65C124.821 208.995 133.037 205.433 140.442 201.584L179.866 180.895Q252.422 142.392 325.616 105.119L460.235 35.563Q476.332 27.2978 492.512 19.194C498.487 16.1959 504.912 12.195 511.397 10.5527Z"/>
	<path fill="white" d="M511.695 26.5559C522.657 30.1891 539.653 40.1175 550.275 45.7408C567.402 54.8085 584.747 63.5236 602.005 72.3429L796.894 173.829L859.114 206.839C868.915 212.041 878.581 217.513 888.539 222.413C887.114 229.187 885.795 235.976 884.996 242.857C881.691 271.333 888.016 298.305 905.965 320.874C923.995 343.544 944.781 350.937 972.527 354.073C973.043 405.94 971.433 456.999 963.565 508.366C945.527 626.117 892.199 746.763 810.56 834.181C795.615 850.184 779.782 865.878 763.073 880.037C705.255 929.028 634.449 966.189 560.518 983.302C544.146 987.091 526.717 991.667 509.879 992.231C494.259 989.65 478.592 986.961 463.217 983.15Q459.07 982.11 454.942 981Q450.814 979.89 446.705 978.708Q442.597 977.527 438.509 976.276Q434.421 975.025 430.355 973.703Q426.29 972.382 422.247 970.992Q418.205 969.601 414.187 968.141Q410.169 966.682 406.176 965.154Q402.184 963.625 398.218 962.029Q394.252 960.432 390.314 958.768Q386.377 957.104 382.468 955.373Q378.559 953.641 374.681 951.843Q370.802 950.045 366.955 948.181Q363.108 946.317 359.294 944.387Q355.479 942.457 351.698 940.462Q347.917 938.467 344.171 936.407Q340.425 934.348 336.714 932.224Q333.004 930.101 329.33 927.914Q325.657 925.728 322.022 923.479Q318.386 921.229 314.79 918.918Q311.193 916.607 307.637 914.235Q304.081 911.862 300.566 909.429Q297.051 906.996 293.578 904.503Q290.105 902.01 286.675 899.458Q283.245 896.906 279.86 894.296Q276.474 891.686 273.134 889.018Q269.794 886.35 266.5 883.625Q263.206 880.9 259.959 878.119Q256.712 875.338 253.513 872.502Q250.315 869.666 247.165 866.776Q244.015 863.885 240.915 860.941Q237.816 857.997 234.767 855Q231.718 852.004 228.721 848.955Q217.725 837.89 207.347 826.244Q196.969 814.597 187.239 802.404Q177.51 790.211 168.457 777.506Q159.405 764.802 151.057 751.624C72.5715 629.357 49.0687 497.448 49.1339 354.12C56.7368 353.534 64.3767 352.785 71.7598 350.798Q72.8212 350.506 73.8751 350.188Q74.929 349.87 75.9748 349.527Q77.0206 349.183 78.0576 348.814Q79.0947 348.445 80.1224 348.05Q81.1502 347.656 82.1679 347.237Q83.1857 346.817 84.1928 346.373Q85.2 345.929 86.196 345.46Q87.192 344.991 88.1762 344.498Q89.1605 344.005 90.1323 343.488Q91.1042 342.971 92.0631 342.431Q93.022 341.89 93.9673 341.326Q94.9127 340.762 95.844 340.175Q96.7752 339.588 97.6919 338.979Q98.6085 338.369 99.5099 337.737Q100.411 337.105 101.297 336.452Q102.183 335.798 103.052 335.123Q103.922 334.448 104.774 333.751Q105.627 333.055 106.462 332.338Q107.297 331.621 108.115 330.884Q108.932 330.147 109.732 329.39Q110.531 328.633 111.311 327.856Q112.092 327.08 112.853 326.285Q113.614 325.49 114.355 324.676Q115.097 323.862 115.818 323.031Q116.54 322.199 117.24 321.35Q117.941 320.501 118.621 319.636Q119.301 318.77 119.959 317.888Q120.617 317.005 121.254 316.107Q121.89 315.209 122.505 314.296Q123.119 313.382 123.711 312.454Q124.303 311.526 124.871 310.583Q125.44 309.641 125.986 308.685C141.215 282.08 141.652 251.402 133.713 222.489Q195.894 189.186 258.797 157.272Q384.879 91.2001 511.695 26.5559Z"/>
	<path d="M511.526 63.9889C513.884 63.9807 515.752 64.8845 517.817 65.9363Q649.145 133.041 779.421 202.166Q796.706 211.285 814.09 220.213C821.48 223.968 846.911 236.052 851.683 240.58C853.191 242.011 852.43 261.284 852.762 265.086C856.391 306.745 874.753 345.999 911.355 368.474Q917.757 372.383 924.664 375.31C928.706 377.002 934.632 377.452 937.909 380.45C939.762 382.145 939.683 385.339 939.713 387.68C941.299 512.692 909.961 634.704 841.097 739.71C833.633 751.09 826.115 762.54 817.82 773.333C803.687 791.725 787.56 809.218 771.371 825.817Q768.639 828.605 765.86 831.346Q763.081 834.087 760.256 836.78Q757.43 839.474 754.56 842.119Q751.69 844.764 748.775 847.36Q745.86 849.956 742.902 852.503Q739.943 855.049 736.942 857.545Q733.941 860.041 730.898 862.485Q727.855 864.93 724.771 867.322Q721.687 869.715 718.563 872.055Q715.439 874.395 712.275 876.682Q709.112 878.969 705.91 881.202Q702.709 883.435 699.47 885.613Q696.231 887.791 692.955 889.914Q689.68 892.037 686.369 894.104Q683.058 896.172 679.712 898.182Q676.367 900.193 672.988 902.147Q669.609 904.101 666.197 905.997Q662.785 907.893 659.341 909.732Q655.898 911.57 652.424 913.349Q648.95 915.129 645.446 916.849Q641.942 918.57 638.41 920.23Q634.878 921.891 631.317 923.492Q627.757 925.092 624.171 926.632Q620.584 928.173 616.972 929.652Q613.36 931.131 609.723 932.548Q606.086 933.966 602.426 935.322Q598.765 936.678 595.083 937.971Q591.4 939.265 587.696 940.495Q583.991 941.727 580.267 942.894Q576.542 944.062 572.799 945.167Q569.055 946.272 565.293 947.313Q561.531 948.354 557.752 949.331C546.136 952.383 522.32 958.572 510.883 958.732C492.236 954.854 473.848 951.618 455.46 946.46C432.281 939.958 409.724 930.811 387.883 920.743Q381.223 917.656 374.66 914.369Q368.097 911.081 361.636 907.597Q355.175 904.113 348.822 900.435Q342.47 896.757 336.232 892.888Q329.993 889.019 323.875 884.964Q317.756 880.908 311.763 876.669Q305.77 872.431 299.908 868.013Q294.046 863.594 288.321 859.001Q282.595 854.407 277.011 849.643Q271.427 844.878 265.99 839.947Q260.552 835.016 255.267 829.922Q249.981 824.828 244.852 819.577Q239.722 814.326 234.754 808.922Q229.786 803.518 224.984 797.967Q220.182 792.415 215.55 786.72Q210.918 781.026 206.46 775.194Q192.247 756.318 179.396 736.49Q166.545 716.661 155.119 695.979C147.908 683.129 141.809 669.825 135.906 656.335C111.71 601.047 98.5983 549.171 90.2864 489.627C87.1045 466.832 84.5873 443.604 83.6502 420.594C83.3623 413.527 81.3321 386.558 83.1579 381.07C83.9578 378.665 98.2406 374.528 101.178 373.203C140.986 355.245 167.135 313.676 171.059 270.762C171.601 264.826 170.731 243.71 172.192 240.386C172.811 238.979 174.111 238.333 175.399 237.634C183.218 233.394 191.338 229.566 199.252 225.489L246.01 201.227L373.047 135.459L461.828 89.2214L490.287 74.6117C497.305 70.9866 504.278 67.1339 511.526 63.9889Z"/>
	<path fill="white" d="M736.36 836.796L743.336 836.365L735.79 843.321C733.819 841.14 731.7 839.102 729.608 837.038L736.36 836.796Z"/>
	<path fill="white" d="M275.351 832.373C282.686 833.725 289.594 834.623 297.062 834.99L292.923 837.49C290.666 838.942 288.748 840.47 286.776 842.285Q280.925 837.489 275.351 832.373Z"/>
	<path fill="white" d="M882.549 627.716C883.713 627.621 884.881 627.641 886.048 627.632L886.344 628.217Q883.052 635.444 879.894 642.73L874.605 638.764C871.027 635.751 867.969 632.626 865.257 628.804C870.999 628.211 876.786 628.012 882.549 627.716Z"/>
	<path fill="white" d="M137.63 628.461C144.388 628.596 151.152 628.971 157.915 629.122C155.596 632.104 153.146 634.963 150.686 637.829C148.519 640.393 146.471 643.082 144.374 645.706C141.614 640.2 139.642 634.272 137.63 628.461Z"/>
	<path fill="white" d="M332.984 809.864C335.048 809.989 336.211 810.541 337.871 811.728C344.302 816.327 344.211 823.796 347.211 830.398C348.489 833.209 351.135 836.236 351.675 839.23L350.824 839.138C343.212 833.814 336.68 827.133 330.254 820.476C330.626 816.777 331.672 813.322 332.984 809.864Z"/>
	<path fill="white" d="M359.311 893.971C363.773 893.862 368.668 895.19 373.116 895.882Q383.385 897.425 393.681 898.775C398.449 903.552 402.264 909.188 404.573 915.557C392.139 911.087 370.426 900.976 359.311 893.971Z"/>
	<path fill="white" d="M645.955 895.726C651.56 895.816 657.052 896.054 662.634 895.375C651.574 901.635 640.215 907.052 628.729 912.47C625.122 914.285 621.515 916.059 617.828 917.706C619.867 912.683 622.416 906.774 625.965 902.613C630.966 896.747 638.798 896.246 645.955 895.726Z"/>
	<path fill="white" d="M375.333 837.817C380.034 841.636 384.235 845.88 388.439 850.223C386.198 858.991 386.203 866.872 386.58 875.834L383.828 871.735C377.796 864.16 370.932 857.428 365.166 849.589C369.328 845.979 372.319 842.434 375.333 837.817Z"/>
	<path fill="white" d="M663.396 867.582C671.945 866.944 681.689 872.116 688.203 877.191C680.66 881.154 672.498 883.248 664.116 884.431C656.167 885.423 647.981 885.24 639.983 885.307C647.776 876.788 651.746 870.738 663.396 867.582Z"/>
	<path fill="white" d="M347.881 867.596C350.194 867.352 352.443 867.182 354.772 867.363C367.629 868.365 374.795 877.585 382.374 886.741Q372.453 885.648 362.61 883.999C351.017 881.579 335.943 878.807 326.074 872.171C333.761 871.577 340.501 869.737 347.881 867.596Z"/>
	<path fill="white" d="M866.962 570.24C879.714 570.22 891.755 571.456 904.372 573.354C902.753 580.069 901.261 586.947 898.674 593.364C898.401 593.33 898.127 593.298 897.855 593.261C883.945 591.344 868.833 581.528 860.468 570.429L866.962 570.24Z"/>
	<path fill="white" d="M140.571 570.709Q151.348 570.427 162.109 571.088C156.293 578.646 147.628 586.353 139.44 591.155C137.698 591.953 135.882 592.662 134.02 593.123C131.373 593.776 128.54 594.172 126.132 592.554C121.693 589.573 120.024 579.601 118.903 574.655C125.964 572.274 133.15 571.096 140.571 570.709Z"/>
	<path fill="white" d="M364.811 781.272C365.463 781.8 365.739 782.202 366.138 782.965C371.131 792.507 375.246 810.736 372.093 821.509C370.558 826.755 367.39 834.245 362.422 836.97C358.395 831.37 354.467 824.546 353.136 817.695C351.018 806.792 358.682 790.255 364.811 781.272Z"/>
	<path fill="white" d="M266.756 804.197C280.177 802.527 295.079 806.457 306.511 813.465C308.539 814.709 312.801 817.032 313.359 819.348C310.782 822.029 304.943 822.822 301.357 823.737C295.821 824.58 290.337 824.7 284.789 823.869C273.383 822.162 261.143 815.767 254.173 806.433C258.292 805.166 262.478 804.601 266.756 804.197Z"/>
	<path fill="white" d="M323.246 746.434C325.021 748.406 326.415 752.736 327.406 755.3C331.189 765.093 336.432 780.423 331.754 790.677C330.167 794.156 327.352 801.141 323.664 802.478C319.093 798.546 315.283 792.665 313.39 786.942C308.671 772.672 317.106 758.784 323.246 746.434Z"/>
	<path fill="white" d="M122.982 466.398C124.132 467.659 124.397 469.607 124.694 471.249C127.509 486.857 124.335 508.78 115.024 521.78C113.796 523.495 111.947 526.292 109.84 526.655L109.349 525.302C107.232 514.501 105.49 503.593 103.509 492.762C108.517 482.742 115.527 474.631 122.982 466.398Z"/>
	<path fill="white" d="M900.017 466.281C908.388 471.861 915.905 485.21 920.768 493.927C919.496 503.742 917.083 513.643 915.214 523.376C914.991 524.446 914.836 525.136 914.172 526.016L913.056 526.136C910.885 525.105 909.625 523.245 908.345 521.277C898.067 505.47 896.26 484.442 900.017 466.281Z"/>
	<path fill="white" d="M750.184 804.714C757.523 804.622 763.786 805.922 770.574 808.639C767.856 811.219 765.539 814.168 762.878 816.804C755.234 824.373 744.519 827.124 733.998 827.049C728.627 826.673 722.583 826.029 717.502 824.204C715.624 823.529 714.509 822.835 713.635 821.022C713.775 819.844 714.033 819.123 714.85 818.232C716.654 816.264 719.198 814.826 721.471 813.467C730.646 807.98 739.556 805.445 750.184 804.714Z"/>
	<path fill="white" d="M774.464 733.606L775.063 734.257C774.89 739.968 770.915 747.495 768.015 752.32C759.914 765.799 745.848 775.634 730.683 779.49L730.299 778.817C731.078 772.369 734.544 764.689 737.959 759.196C746.28 745.811 759.282 737.241 774.464 733.606Z"/>
	<path fill="white" d="M707.745 836.604C707.932 836.585 708.119 836.544 708.307 836.549C712.67 836.675 724.428 846.461 727.971 849.59C718.933 857.033 706.878 862.108 695.157 862.597C687.697 862.771 681.214 860.378 674.252 858.056Q674.606 857.494 674.983 856.947C682.702 845.486 694.365 839.236 707.745 836.604Z"/>
	<path fill="white" d="M248.104 730.829C250.591 731.497 252.993 732.23 255.35 733.28C275.787 742.381 288.791 757.869 296.774 778.418C290.738 777.672 285.012 776.809 279.59 773.883C263.482 765.192 253.291 747.807 248.104 730.829Z"/>
	<path fill="white" d="M316.619 838.616C318.612 838.493 320.624 838.35 322.621 838.413C334.748 838.791 343.383 844.786 351.472 853.254C345.305 858.329 336.885 860.603 329.129 861.84C314.069 862.981 306.39 856.82 294.851 848.304C301.366 843.671 308.736 840.088 316.619 838.616Z"/>
	<path fill="white" d="M853.712 502.075C861.086 502.809 868.918 505.875 875.551 509.055C885.24 513.701 898.711 523.479 902.165 534.148C903.243 537.476 903.059 539.748 901.485 542.837L900.784 543.733C897.409 544.33 891.024 541.662 887.882 540.185C872.564 532.978 859.365 517.997 853.712 502.075Z"/>
	<path fill="white" d="M408.159 830.272C408.356 830.47 408.559 830.663 408.751 830.865C415.161 837.61 418.507 854.11 418.387 863.129C418.243 873.951 414.182 884.15 406.463 891.744C406.26 891.667 406.039 891.626 405.855 891.511C403.242 889.886 398.896 878.989 398.031 875.639C393.998 860.015 400.279 843.613 408.159 830.272Z"/>
	<path fill="white" d="M167.805 502.012L169.051 502.149C169.162 502.585 169.227 502.707 169.165 503.217C168.34 509.986 156.676 525.316 151.327 530.151C142.44 538.185 133.233 542.454 121.175 541.898C119.891 541.227 119.103 540.896 118.65 539.425C118.029 537.413 118.733 535.596 119.714 533.844C124.814 524.738 136.075 515.663 145.095 510.738C152.216 506.85 160.058 504.322 167.805 502.012Z"/>
	<path fill="white" d="M700.044 744.861C708.233 752.714 711.554 764.179 712.209 775.257C712.872 786.467 710.154 798.192 702.553 806.7L701.519 806.863C696.884 803.209 693.798 794.07 692.31 788.536C688.469 774.255 692.85 757.435 700.044 744.861Z"/>
	<path fill="white" d="M656.182 778.215C662.619 782.397 666.926 793.007 669.067 800.023C673.506 814.568 670.401 827.634 663.403 840.785C662.879 841.562 663.232 841.205 662.259 841.766C658.755 840.38 655.197 833.472 653.709 830.099C646.239 813.167 649.675 794.818 656.182 778.215Z"/>
	<path fill="white" d="M613.658 821.349C617.44 825.387 623.292 839.352 624.912 844.701C630.13 861.938 626.965 876.599 618.658 892.292L617.742 892.973C615.049 891.727 611.932 885.231 610.664 882.423C602.086 863.427 606.612 840.089 613.658 821.349Z"/>
	<path fill="white" d="M511.547 76.907C515.199 77.3656 558.454 100.194 564.008 103.054Q652.354 147.874 739.661 194.687L804.2 228.243C816.402 234.662 828.933 240.919 840.623 248.231C839.958 273.892 844.045 299.319 855.118 322.657C870.641 355.376 893.75 376.931 928.055 389.104Q928.612 416.044 926.638 442.918C925.714 454.643 924.107 466.329 923.368 478.062C919.465 473.135 903.864 453.118 900.019 450.861C899.018 450.273 897.471 450.145 896.358 450.461C894.964 450.858 893.991 451.852 893.238 453.036C891.338 456.019 890.651 460.051 889.964 463.473C887.1 477.742 887.056 490.928 889.869 505.189C877.847 497.796 862.347 491.486 848.129 490.525C845.827 490.37 842.868 490.482 841.165 492.29C840.36 493.144 839.951 494.304 839.931 495.464C839.88 498.471 841.494 501.641 842.647 504.361C847.866 516.674 854.535 527.786 864.12 537.239C874.126 547.108 886.845 553.618 901.014 553.564L901.145 561.775C892.038 560.691 852.773 556.689 846.688 561.035C845.543 561.853 844.804 562.988 844.615 564.389C844.237 567.197 845.947 569.949 847.492 572.14C854.468 582.029 866.982 593.201 877.899 598.484C883.513 601.201 889.098 602.522 895.219 603.551Q893.1 610.165 891.144 616.83C883.103 616.927 854.131 616.938 849.164 622.492C848.292 623.466 847.94 624.545 848.116 625.845C848.918 631.776 869.179 649.467 874.364 653.279C855.944 698.774 827.435 744.505 795.713 782C790.68 787.95 785.227 795.345 778.99 800.042C758.256 792.416 739.774 793.036 719.388 801.087C721.126 797.04 723.14 793.122 725.108 789.184C729.673 788.889 734.152 788.448 738.596 787.327C754.268 783.372 769.481 772.693 777.685 758.658C780.77 753.379 790.545 729.721 788.325 724.126C787.839 722.902 786.935 721.999 785.693 721.53C779.452 719.173 762.642 725.898 756.835 728.814C740.513 737.01 727.556 750.515 721.826 768.027C720.563 757.23 715.412 746.512 708.737 738.038C706.486 735.18 703.447 731.737 699.567 731.447C697.662 731.304 695.911 732.066 694.509 733.322C687.07 739.991 680.413 765.191 679.958 775.033C679.018 795.341 684.956 805.053 698.325 819.72C697.56 822.357 697.035 825.084 696.436 827.764C688.275 831.226 682.385 834.713 675.865 840.697C678.361 834.955 680.463 829.305 681.405 823.084C684.048 805.628 679.242 789.898 668.875 775.837C665.748 771.596 661.191 765.02 655.525 764.382C653.598 764.166 651.647 764.658 650.198 765.976C644.271 771.365 638.794 799.124 638.605 807.505C638.311 820.534 641.843 834.475 650.167 844.745C652.819 848.017 656.09 850.723 658.991 853.767C657.8 856.657 641.654 869.425 637.891 873.052C639.003 854.785 637.561 842.121 628.525 826C625.237 820.133 618.864 807.356 612.396 805.531C611.349 805.615 610.691 805.785 609.907 806.531C601.778 814.269 595.016 849.751 594.92 861.185C594.781 877.693 601.45 890.959 612.848 902.637C609.521 909.453 606.161 916.239 603.248 923.245C602.594 923.715 601.175 924.012 600.378 924.297C577.398 931.909 554.15 939.222 530.42 944.108C524.952 945.234 519.066 946.772 513.483 947.002C507.63 947.244 501.109 945.231 495.378 944.015C469.213 938.462 442.576 931.506 418.051 920.624C415.559 914.552 413.106 908.523 410.064 902.7C421.238 891.997 428.488 880.104 429.011 864.22C429.461 850.556 422.003 826.291 412.527 816.556C410.652 814.63 408.936 813.681 406.245 813.688C400.997 815.727 395.075 832.138 391.908 837.576L391.425 837.209C387.704 834.443 384.888 830.65 381.604 827.389C383.201 819.715 384.34 812.333 383.2 804.502C382.261 798.052 372.941 764.08 368.848 761.289C367.406 760.306 366.173 760.461 364.572 760.715C360.116 763.323 346.062 794.74 343.863 800.847C342.618 799.974 341.463 799.014 340.294 798.046C343.587 790.19 344.952 780.858 343.721 772.396C342.818 766.191 331.405 731.087 327.162 727.901C325.57 727.546 324.529 727.572 322.929 727.861C318.826 730.262 305.487 759.87 303.564 765.927C301.086 761.449 298.567 757.03 295.579 752.865C285.058 738.2 270.672 727.667 253.733 721.586C250.634 720.474 247.238 719.049 243.984 718.603C242.081 718.343 240.466 718.558 238.943 719.839C237.41 721.129 236.845 723.51 236.781 725.415C236.326 739.038 249.481 760.543 258.468 770.284C271.513 784.426 283.47 788.217 302.178 788.986C304.066 793.279 306.18 797.469 308.25 801.677C299.303 797.788 290.483 794.4 280.671 793.574C270.529 792.721 251.392 793.644 243.311 800.483Q237.571 794.273 232.037 787.879Q226.503 781.484 221.18 774.913Q215.858 768.342 210.752 761.601Q205.647 754.859 200.764 747.955Q195.881 741.051 191.226 733.991Q186.571 726.931 182.148 719.723Q177.726 712.516 173.541 705.167Q169.356 697.819 165.413 690.338C159.504 679.307 153.628 668.218 149.027 656.559C153.272 651.588 172.706 629.741 172.728 625.641C172.736 624.213 172.386 623.33 171.421 622.28C167.685 618.215 140.265 617.651 133.907 617.449C131.947 613.395 130.421 609.031 128.74 604.849C136.12 603.821 143.184 601.611 149.455 597.452C155.8 593.243 176.698 573.612 177.972 566.776C178.227 565.403 178.137 563.807 177.129 562.729C172.306 557.573 128.008 560.659 118.942 561.482C118.512 558.561 118.512 555.581 118.41 552.634Q120.942 552.923 123.491 552.925Q126.039 552.928 128.572 552.644Q131.104 552.36 133.589 551.793Q136.074 551.226 138.479 550.384C154.709 544.781 168.494 529.297 175.822 514.17C178.049 509.572 183.38 497.464 181.094 492.504C180.518 491.255 179.913 490.622 178.605 490.184C169.643 487.186 143.012 500.085 134.198 504.289C135.774 496.266 136.606 487.917 136.089 479.74C135.69 473.429 132.919 454.663 127.827 450.931C126.762 450.151 125.55 450.013 124.278 450.287C120.337 451.135 103.831 472.727 100.543 476.985C98.6505 467.837 98.1742 458.155 97.3562 448.847Q94.6459 418.361 93.9748 387.763C118.212 381.695 139.06 365.237 154.337 345.926C175.395 319.308 186.305 281.918 182.376 248.099Q240.809 218.205 298.799 187.459L511.547 76.907Z"/>
	<path d="M511.43 786.988C512.724 787.008 513.985 787.06 515.172 787.674C516.421 788.321 517.253 789.551 517.773 790.818C519.805 795.776 520.499 801.993 521.512 807.252C523.568 817.918 525.44 828.641 527.799 839.244C538.748 839.439 549.737 839.106 560.688 838.985C566.042 838.926 571.824 838.437 577.117 839.198C578.521 839.399 579.659 839.948 580.427 841.199C581.23 842.505 581.276 844.108 580.803 845.533C580.387 846.785 579.631 847.721 578.558 848.462C574.025 851.596 567.748 853.749 562.718 856.168Q549.322 862.526 536.364 869.735Q541.982 884.102 547.946 898.33C550.38 904.169 553.466 910.308 555.02 916.434C555.418 918.005 555.81 920.098 554.905 921.579C554.3 922.569 553.151 923.312 551.979 923.389C550.776 923.467 549.437 923.18 548.385 922.577C545.152 920.724 542.128 917.699 539.312 915.226C530.014 907.06 521.574 898.008 511.831 890.346C508.045 892.761 504.655 897.035 501.44 900.204C495.416 906.143 482.866 918.08 476.248 922.375C474.682 923.391 473.196 924.08 471.321 923.63C470.224 922.842 469.368 922.175 468.907 920.82C467.755 917.423 484.413 876.026 486.758 869.796C477.487 864.836 467.886 860.333 458.346 855.911C453.533 853.68 447.293 851.675 443.084 848.5C442.04 847.712 441.64 846.894 441.524 845.587C441.376 843.913 441.456 842.347 442.75 841.105C443.748 840.149 444.971 839.793 446.295 839.596C451.778 838.784 458.055 839.365 463.614 839.39L495.177 839.405L503.908 805.303C505.207 800.379 506.109 794.41 508.485 789.906C509.186 788.577 510.207 787.812 511.43 786.988Z"/>
	<path fill="white" d="M511.669 815.834C513.568 821.756 516.78 844.94 519.988 847.934C523.322 851.044 544.957 849.661 550.912 849.913C546.23 852.534 526.578 861.585 524.868 865.421C524.243 866.822 524.223 868.235 524.585 869.711C525.354 872.848 527.099 875.991 528.35 878.981Q531.965 887.397 535.132 895.992C528.423 890.798 522.301 883.796 515.17 879.391C512.897 877.987 511.332 878.144 508.846 878.794C501.402 884.402 494.764 891.806 487.84 898.111Q490.401 890.327 493.398 882.701C494.923 878.796 497.13 874.485 497.919 870.389C498.177 869.052 498.187 867.665 497.712 866.376C495.659 860.8 476.747 852.861 470.703 849.861C476.268 849.777 498.286 850.939 501.985 848.817C503.296 848.065 504.106 847.085 504.669 845.708C505.921 842.643 506.334 838.661 507.01 835.399C508.366 828.857 509.696 822.221 511.669 815.834Z"/>
	<path d="M511.645 113.458C512.66 113.662 513.659 113.907 514.589 114.382C518.709 116.486 532.95 130.92 537.651 135.265L606.466 198.919C609.388 201.584 617.89 207.279 618.403 210.887C618.563 212.009 618.254 213.365 617.539 214.253C615.115 217.267 608.925 216.585 605.498 216.579L605.454 307.627C613.398 311.205 676.911 338.989 678.482 341.724C679.784 343.992 679.857 356.354 679.569 359.223C678.342 371.444 666.753 362.008 661.455 366.146C660.998 367.483 661.251 368.478 661.505 369.816C666.499 372.087 764.887 370.902 779.165 370.816C783.686 370.789 798.485 369.651 801.778 371.142C802.7 371.56 803.348 371.974 803.724 372.943C805.578 377.725 805.22 397.42 803.285 402.149C800.212 404.471 792.23 403.184 788.472 403.05L788.406 621.678C800.482 621.958 809.893 622.549 819.002 631.394C825.525 637.729 828.58 646.402 828.632 655.404Q828.635 656.159 828.6 656.912Q828.565 657.666 828.493 658.417Q828.42 659.169 828.311 659.915Q828.201 660.662 828.055 661.402Q827.908 662.142 827.725 662.874Q827.542 663.606 827.323 664.328Q827.104 665.051 826.849 665.761Q826.594 666.471 826.304 667.168Q826.014 667.865 825.69 668.546Q825.366 669.227 825.008 669.892Q824.65 670.556 824.26 671.202Q823.87 671.848 823.448 672.474Q823.026 673.1 822.574 673.704Q822.121 674.307 821.639 674.888Q821.157 675.469 820.647 676.025Q820.137 676.581 819.6 677.111C814.32 682.293 807.43 685.239 800.155 686.181C791.691 687.276 782.313 686.377 773.728 686.397L713.129 686.407L512.141 686.341L314.798 686.469L255.074 686.395C243.372 686.359 230.726 687.237 219.181 685.26C213.358 684.262 207.481 680.282 203.314 676.178Q202.745 675.625 202.205 675.043Q201.665 674.462 201.155 673.854Q200.645 673.246 200.167 672.613Q199.688 671.981 199.242 671.325Q198.796 670.668 198.383 669.991Q197.971 669.313 197.593 668.615Q197.215 667.917 196.873 667.201Q196.531 666.485 196.225 665.753Q195.92 665.021 195.651 664.274Q195.383 663.527 195.153 662.768Q194.923 662.009 194.731 661.239Q194.539 660.469 194.387 659.69Q194.234 658.912 194.121 658.126Q194.008 657.341 193.935 656.551Q193.861 655.761 193.828 654.968Q193.794 654.175 193.801 653.382Q193.809 652.627 193.854 651.874Q193.899 651.12 193.98 650.37Q194.062 649.619 194.18 648.874Q194.299 648.128 194.454 647.39Q194.608 646.651 194.799 645.92Q194.99 645.19 195.216 644.47Q195.442 643.75 195.704 643.042Q195.965 642.333 196.261 641.639Q196.556 640.944 196.886 640.265Q197.215 639.586 197.577 638.923Q197.939 638.261 198.334 637.617Q198.728 636.974 199.153 636.35Q199.578 635.726 200.034 635.124Q200.489 634.522 200.973 633.943Q201.457 633.364 201.969 632.809Q202.481 632.255 203.02 631.726C212.465 622.42 223.679 622.003 236.165 622.107C235.609 597.27 236.198 572.508 236.185 547.677L235.768 404.13C232.197 404.129 225.079 405.347 222.27 402.962C221.186 402.041 220.606 400.92 220.42 399.52C219.773 394.642 219.674 374.457 222.14 371.1C228.834 368.638 261.177 369.935 270.14 369.941L361.893 370.367L361.915 364.59C357.419 364.51 352.732 365.22 348.269 364.727C347.415 364.633 346.399 364.497 345.889 363.751C343.689 360.533 343.24 345.56 344.707 341.791C345.357 340.118 347.994 338.967 349.492 338.185C361.275 332.029 376.606 326.168 389.054 320.795C398.476 316.728 407.721 311.79 417.441 308.504C417.937 277.718 417.434 246.76 417.09 215.967C413.971 216.106 408.8 216.861 406.234 214.739C404.637 213.419 404.489 212.094 404.402 210.18L405.666 208.962L405.575 208.798C406.187 207.558 497.704 124.276 507.261 116.131C508.669 114.932 509.906 114.1 511.645 113.458Z"/>
	<path fill="white" d="M362.737 443.471C364.205 443.408 365.639 443.147 366.936 443.966C367.594 448.867 368.028 477.015 366.899 480.578Q364.659 480.554 362.421 480.455C362.383 480.319 362.362 480.177 362.307 480.047C362.227 479.854 362.079 479.691 362.019 479.491C361.296 477.113 361.389 450.023 361.759 446.225C361.864 445.146 362.213 444.401 362.737 443.471Z"/>
	<path fill="white" d="M658.382 442.151C659.903 442.508 660.794 442.748 661.975 443.863C663.682 447.72 663.404 475.96 662.425 480.271C660.699 480.281 658.579 480.481 657.246 479.302C656.454 473.529 656.13 446.375 658.382 442.151Z"/>
	<path fill="white" d="M364.137 527.762C364.397 527.798 364.659 527.821 364.916 527.869C365.51 527.979 366.297 528.003 366.602 528.578C367.521 530.311 367.568 564.99 366.9 567.405L365.246 568.335C363.98 567.993 362.852 567.924 361.907 566.987C360.882 557.499 361.283 544.854 361.582 535.205C361.681 531.996 361.705 530.066 364.137 527.762Z"/>
	<path fill="white" d="M657.279 527.439C658.774 527.385 659.85 527.348 661.269 527.944C661.623 528.368 662.096 528.718 662.332 529.218C663.752 532.22 662.757 562.512 662.699 567.954C661.005 568.242 658.895 568.39 657.348 567.579C656.626 556.113 656.473 538.857 657.279 527.439Z"/>
	<path fill="white" d="M374.475 395.59C381.366 395.53 398.773 394.393 404.459 396.134C405.331 397.111 405.546 397.408 405.628 398.796C405.73 400.526 405.058 401.696 403.98 402.949C403.297 403.198 402.614 403.431 401.908 403.61C398.353 404.511 377.882 404.647 375.059 403.06C373.675 400.62 374.165 398.271 374.475 395.59Z"/>
	<path fill="white" d="M619.725 395.969C630.524 395.448 641.548 395.864 652.371 395.929C652.444 398.252 652.958 401.806 651.813 403.831C645.067 404.043 628.853 405.097 623.185 403.654C621.525 403.231 619.667 402.601 618.93 400.888C618.141 399.056 618.861 397.566 619.725 395.969Z"/>
	<path fill="white" d="M561.991 395.742C570.291 395.571 582.53 394.835 590.484 395.938C592.121 396.165 592.502 396.409 593.487 397.714C593.951 400.387 593.045 401.911 591.55 404.08C585.025 404.303 565.726 405.442 560.968 402.156C560.058 400.496 560.118 398.839 560.585 396.981C560.811 396.079 561.223 396.143 561.991 395.742Z"/>
	<path fill="white" d="M431.668 395.679C437.225 395.649 459.964 394.311 463.371 396.81C463.881 397.752 464.056 398.401 464.005 399.46C463.912 401.406 463.38 402.7 461.962 404.055C457.772 404.117 433.12 405.323 431.017 403.363C429.666 402.104 429.19 400.235 429.076 398.457C429.552 396.995 430.466 396.504 431.668 395.679Z"/>
	<path fill="white" d="M506.477 236.927C510.17 236.732 513.881 236.83 517.577 236.865C517.837 245.988 516.684 255.708 517.613 264.72L517.691 265.416C517.127 266.121 517.465 265.826 516.669 266.292C516.194 266.09 515.717 265.896 515.234 265.716C511.818 264.443 509.596 265.845 506.499 267.267C506.273 257.164 506.453 247.032 506.477 236.927Z"/>
	<path fill="white" d="M555.6 237.048C558.992 236.977 563.1 236.464 566.375 237.265C568.45 242.683 567.285 260.037 567.276 266.63L555.058 266.701C555.486 256.832 555.465 246.925 555.6 237.048Z"/>
	<path fill="white" d="M562.322 585.952Q576.827 585.869 591.332 585.987C591.461 589.973 591.347 593.984 591.326 597.973L562.222 597.984C562.138 593.978 562.266 589.958 562.322 585.952Z"/>
	<path fill="white" d="M429.672 585.738C441.341 585.267 453.266 585.545 464.944 585.828C465.023 590.019 464.967 594.218 464.964 598.409C453.242 598.495 441.474 598.139 429.748 598.024C429.556 593.926 429.619 589.838 429.672 585.738Z"/>
	<path fill="white" d="M374.675 585.522C389.384 585.328 404.122 585.542 418.834 585.558C418.875 589.799 418.796 594.046 418.77 598.287L374.655 598.371C374.538 594.083 374.598 589.81 374.675 585.522Z"/>
	<path fill="white" d="M640.999 585.749L646.777 585.814C646.876 590.038 646.824 594.229 646.682 598.451L607.775 598.517L601.667 598.447C601.479 594.297 601.598 590.111 601.611 585.957C614.686 585.425 627.907 585.778 640.999 585.749Z"/>
	<path fill="white" d="M475.456 585.902Q513.731 585.672 552.005 585.931L551.925 598.107C526.506 598.869 500.927 598.356 475.49 598.353L475.456 585.902Z"/>
	<path fill="white" d="M663.165 380.915C706.522 380.526 750.127 380.306 793.468 381.163C793.508 385.25 793.719 389.419 793.341 393.491Q728.109 394.276 662.875 393.655C663.083 389.42 663.077 385.155 663.165 380.915Z"/>
	<path fill="white" d="M230.785 379.936C246.182 379.672 261.638 379.973 277.039 380.005L361.826 380.03C361.712 384.647 362.013 389.058 362.75 393.613C318.735 393.63 274.734 394.544 230.718 393.61Q230.562 386.772 230.785 379.936Z"/>
	<path fill="white" d="M379.519 414.037C385.036 414.024 390.507 414.263 396.014 414.557L396.005 575.443L379.512 575.443L379.519 414.037Z"/>
	<path fill="white" d="M627.408 414.121C633.006 413.89 638.665 414.04 644.27 414.042C644.05 467.873 644.611 521.729 643.755 575.554Q635.634 575.804 627.509 575.783Q627.021 526.642 627.163 477.498L627.071 436.666C627.091 429.181 626.895 421.59 627.408 414.121Z"/>
	<path fill="white" d="M568.217 413.957C573.948 413.894 579.937 413.631 585.628 414.289C586.647 434.505 585.92 455.121 585.969 475.372Q586.261 525.422 585.953 575.471L568.231 575.449C567.594 566.531 567.892 557.328 567.827 548.38Q567.69 519.454 567.873 490.53L567.954 441.749C567.962 432.535 567.585 423.149 568.217 413.957Z"/>
	<path fill="white" d="M437.742 414.506L456.068 414.507L455.913 519.686L455.907 553.666C455.905 560.817 456.179 568.104 455.459 575.222C449.606 575.494 443.703 575.322 437.843 575.302C437.026 548.674 437.599 521.895 437.581 495.252C437.562 468.374 436.955 441.366 437.742 414.506Z"/>
	<path fill="white" d="M414.762 395.919C416.258 395.916 418.018 395.645 419.327 396.356C419.368 398.302 419.295 400.319 419.501 402.252C420.075 407.607 422.989 410.479 426.9 413.715C427.914 432.866 427.175 452.452 427.183 471.651Q427.32 523.482 426.656 575.309L418.25 575.382L406.485 575.35C405.745 548.435 406.241 521.438 406.391 494.514L406.532 414.397C408.764 412.811 410.864 411.176 412.517 408.963C415.584 404.856 415.458 400.706 414.762 395.919Z"/>
	<path fill="white" d="M602.479 396.065C603.985 396.009 605.373 396.033 606.873 396.178C609.665 398.351 608.89 402.671 609.759 405.87C610.781 409.634 613.895 412.019 617.143 413.803L616.895 521.151C616.883 538.645 617.923 558.224 616.53 575.407L609.741 575.412C605.304 575.404 600.957 575.305 596.535 574.902L596.196 477.882C596.139 456.348 595.722 434.742 596.208 413.218C597.657 412.145 599.23 410.993 600.383 409.603C603.633 405.686 602.797 400.766 602.479 396.065Z"/>
	<path fill="white" d="M508.379 493.084Q509.559 492.933 510.748 492.906C517.099 492.709 523.409 494.66 528.003 499.168C531.437 502.538 533.517 506.827 534.537 511.492C536.367 519.869 535.385 529.705 535.326 538.281L535.177 575.388L517.25 575.425L489.479 575.453L489.343 535.355C489.31 528.12 488.793 520.554 489.56 513.375C489.845 510.71 490.435 508.08 491.681 505.69C495.155 499.025 501.371 495.139 508.379 493.084Z"/>
	<path fill="white" d="M512.961 276.996C520.133 279.868 527.114 283.463 534.112 286.737C547.266 292.89 560.434 299.051 573.681 305.001L637.484 333.766C647.741 338.318 658.288 342.292 668.394 347.163L668.439 354.419C663.1 354.58 656.691 355.65 651.505 354.363C644.099 352.524 633.172 346.203 625.781 342.897L549.853 309.153C538.604 304.142 527.319 298.148 515.848 293.779C514.281 293.182 513.145 292.969 511.469 293.022C498.428 298.005 485.686 304.593 472.924 310.319L409.493 338.157C397.598 343.396 383.122 351.082 370.753 354.167C365.731 355.42 360.099 354.849 354.952 354.732C354.732 352.478 354.778 350.216 354.776 347.953C362.517 342.896 372.236 339.541 380.756 335.903Q398.192 328.514 415.489 320.807C448.14 306.562 480.322 291.271 512.961 276.996Z"/>
	<path fill="white" d="M512.023 304.443C513.452 304.409 514.491 304.737 515.802 305.277C527.193 309.97 538.196 315.912 549.478 320.903L586.002 337.292C597.67 342.442 609.318 347.275 620.758 352.941C585.489 353.855 550.037 353.073 514.75 352.938L405.407 352.864C411.641 347.767 427.004 342.727 435.129 339.059C460.742 327.499 486.258 315.657 512.023 304.443Z"/>
	<path fill="white" d="M376.423 363.196C390.618 362.312 405.199 362.95 419.425 362.941L500.832 362.948L602.57 363.055L634.424 363.101C638.428 363.101 642.526 362.772 646.512 362.925C647.454 362.961 648.511 363.153 649.253 363.781C650.157 364.545 650.503 365.87 650.666 366.993C651.163 370.436 652.675 382.679 650.684 385.367L648.625 385.564L371.955 385.444C372.125 378.553 371.469 370.867 372.56 364.109C373.666 363.272 375.06 363.366 376.423 363.196Z"/>
	<path fill="white" d="M640.469 608.745L777.223 608.722L777.186 621.565L383.375 621.805L246.945 621.739C247.212 617.637 247.225 613.507 247.318 609.397L640.469 608.745Z"/>
	<path fill="white" d="M511.621 125.885C515.153 127.501 528.645 141.59 532.426 145.076C554.681 165.597 576.756 186.445 599.562 206.35C586.516 206.887 573.278 206.47 560.217 206.335Q536.734 206.11 513.25 206.279L423.925 206.469C428.176 201.777 433.216 197.646 437.941 193.442L460.347 173.526C477.707 157.942 494.457 141.682 511.621 125.885Z"/>
	<path fill="white" d="M427.466 216.078L595.195 216.516Q595.323 259.756 594.535 302.988C578.753 294.957 562.153 288.814 546.389 280.76L550.119 277.779C558.233 277.331 566.713 278.789 574.735 277.906C576.691 277.69 579.29 277.131 580.364 275.275C581.054 274.081 580.896 272.443 580.622 271.14C580.075 268.546 578.455 267.594 576.404 266.153C576.24 257.688 577.778 240.85 575.314 233.532C574.586 231.371 573.145 229.731 571.699 228.019C569.799 226.715 567.636 226.373 565.375 226.255C560.216 225.985 553.419 225.589 549.392 229.406C547.84 230.878 546.802 232.812 546.256 234.87C544.537 241.353 545.681 258.208 545.66 265.573C544.075 266.657 542.485 267.954 541.759 269.79C540.453 273.093 542.199 276.582 543.416 279.637C537.927 277.484 532.745 274.593 527.839 271.342C526.019 258.68 529.153 243.507 525.636 231.549C522.122 227.893 519.42 226.727 514.387 226.486C509.559 226.255 504.275 225.682 500.484 229.318C498.695 231.035 497.627 233.339 497.059 235.727C495.36 242.868 496.601 264.002 496.682 272.587C486.182 276.796 475.899 281.854 465.617 286.583Q446.749 295.343 427.556 303.366L427.466 216.078Z"/>
	<path d="M457.507 226.593Q460.956 226.428 464.408 226.338C468.133 226.266 471.984 226.965 474.701 229.73C476.217 231.274 477.13 233.207 477.605 235.303C479.089 241.842 478.016 258.115 478.125 265.917C478.248 266.022 478.373 266.125 478.495 266.232C478.684 266.398 478.867 266.57 479.056 266.736C481.07 268.508 481.573 269.904 481.727 272.604C481.843 274.626 481.648 277.032 480.054 278.496C476.54 281.724 475.315 277.871 472.125 277.463C464.529 277.341 455.79 278.619 448.352 277.403C446.088 277.033 444.354 276.416 442.985 274.506C442.728 273.634 442.647 273.131 442.855 272.219C443.342 270.081 445.192 268.121 446.924 266.903C447.013 258.485 445.056 237.817 449.042 231.506C451.155 228.16 453.82 227.418 457.507 226.593Z"/>
	<path fill="white" d="M456.692 236.71C460.058 236.471 464.619 235.827 467.81 236.859C469.7 242.009 468.67 260.585 468.664 267.033L456.517 267.075C456.494 257.009 456.024 246.745 456.692 236.71Z"/>
	<path fill="white" d="M548.341 396.735L549.287 396.782C550.057 398.063 549.845 399.168 549.88 400.624C550.027 406.694 553.312 409.639 557.456 413.591L557.614 509.891C557.728 531.735 558.246 553.618 557.645 575.457L545.496 575.438L545.294 534.847C545.25 526.37 546.108 516.848 544.191 508.578Q543.939 507.492 543.619 506.425Q543.3 505.357 542.913 504.312Q542.526 503.267 542.073 502.248Q541.621 501.229 541.105 500.242Q540.589 499.254 540.011 498.3Q539.434 497.347 538.797 496.433Q538.16 495.518 537.467 494.645Q536.773 493.773 536.026 492.946Q535.481 492.36 534.907 491.801Q534.334 491.242 533.733 490.712Q533.133 490.182 532.507 489.682Q531.881 489.183 531.232 488.715Q530.582 488.246 529.91 487.811Q529.238 487.375 528.546 486.973Q527.853 486.571 527.141 486.204Q526.43 485.837 525.701 485.505Q524.972 485.173 524.228 484.877Q523.484 484.582 522.726 484.324Q521.968 484.065 521.198 483.844Q520.428 483.624 519.649 483.441Q518.869 483.259 518.081 483.115Q517.293 482.971 516.5 482.866Q515.706 482.761 514.908 482.696Q514.109 482.63 513.309 482.604C503.478 482.273 494.722 486.748 487.734 493.363C483.979 497.526 481.417 502.036 480.142 507.506C478.117 516.189 479.126 526.439 479.147 535.359Q479.262 555.333 479.072 575.307C474.829 575.396 470.574 575.328 466.33 575.327Q465.914 523.617 466.059 471.906C466.047 452.573 465.195 432.925 466.228 413.634C467.476 412.577 468.777 411.525 469.937 410.371C473.949 406.379 473.88 402.135 473.797 396.856Q511.069 397.077 548.341 396.735Z"/>
	<path fill="white" d="M246.877 404.191C263.748 403.832 280.659 404.151 297.536 404.144C319.558 404.136 341.59 403.908 363.611 404.128C365.093 407.277 366.407 409.636 369.184 411.8C369.331 418.886 369.232 425.992 369.238 433.081C365.574 432.871 362.004 432.759 358.632 434.483C356.342 435.655 353.18 438.335 352.452 440.856C350.717 446.867 350.147 484.295 352.671 489.211C356.54 491.471 364.097 490.356 368.475 490.287Q368.688 503.84 368.305 517.389C366.419 517.233 364.369 517.015 362.506 517.404C358.715 518.196 355.466 520.416 353.479 523.742C352.209 525.868 351.556 528.309 351.273 530.755C350.724 535.506 351.215 573.057 352.072 576.156C355.65 578.77 360.183 577.998 364.382 577.882C363.865 584.728 363.978 591.662 363.914 598.527L247.432 598.743L247.342 458.273C247.302 440.246 246.699 422.219 246.877 404.191Z"/>
	<path d="M265.526 432.577C269.911 432.175 274.279 432.56 277.828 435.448C281.537 438.466 282.38 442.565 282.807 447.084C283.455 453.944 283.095 461.095 283.129 467.993C283.159 473.801 283.677 480.18 282.903 485.923C282.736 487.162 282.527 488.239 281.575 489.149C279.785 490.858 276.907 490.465 274.625 490.455C270.088 490.469 263.854 491.243 259.478 489.996C258.319 489.665 257.561 489.295 257.021 488.177C254.814 483.606 255.23 445.676 257.248 440.252C258.674 436.421 261.968 434.189 265.526 432.577Z"/>
	<path fill="white" d="M267.792 442.686C268.868 442.803 269.715 443.112 270.719 443.505C271.483 444.35 271.897 444.929 272.003 446.093C272.33 449.69 272.811 477.804 272.068 479.551C271.923 479.892 271.604 480.128 271.372 480.416C269.769 480.407 267.542 480.639 266.266 479.563C265.518 474.192 265.421 450.747 266.327 445.592C266.534 444.412 267.093 443.634 267.792 442.686Z"/>
	<path d="M313.542 432.584C317.192 432.219 320.849 432.183 324.113 434.095C326.796 435.665 329.794 438.943 330.546 442.019C331.668 446.605 332.589 485.647 330.573 488.145C328.671 490.502 325.361 490.305 322.625 490.41C317.956 490.503 312.019 491.276 307.491 490.209C306.246 489.916 305.374 489.625 304.784 488.414C302.767 484.276 302.977 446.924 304.493 441.917C305.828 437.51 309.65 434.611 313.542 432.584Z"/>
	<path fill="white" d="M315.294 442.788C315.504 442.797 315.714 442.797 315.923 442.813C317.459 442.933 318.825 443.265 319.751 444.6C321.714 447.434 321.228 475.963 320.439 480.506C318.637 480.516 316.222 480.774 314.618 479.918C313.662 473.923 313.206 447.229 315.294 442.788Z"/>
	<path d="M267.123 517.089C269.814 517.087 272.093 517.443 274.518 518.674C278.053 520.47 281.123 523.76 282.231 527.624C283.589 532.365 283.993 573.166 282.147 575.699C280.028 578.608 274.866 578.092 271.75 578.135C267.945 578.207 263.215 578.852 259.563 577.792C258.458 577.471 257.241 577.011 256.75 575.897C254.821 571.525 254.95 529.985 257.163 525.616C259.307 521.385 262.624 518.516 267.123 517.089Z"/>
	<path fill="white" d="M267.208 528.214C268.337 528.249 269.33 528.446 270.43 528.677C271.408 529.522 271.86 529.779 272.143 531.104C272.87 534.509 273.072 565.836 271.877 567.581C269.971 567.618 268.255 567.627 266.384 567.24C265.736 563.663 265.312 534.499 266.015 530.566C266.177 529.666 266.704 528.953 267.208 528.214Z"/>
	<path d="M314.155 517.604C314.701 517.557 315.248 517.507 315.796 517.48C319.946 517.27 323.75 518.144 326.823 521.092C330.789 524.897 331.398 529.989 331.545 535.24C331.743 542.336 332.423 567.728 331.14 573.469C330.856 574.737 330.275 575.545 329.349 576.431C327.503 578.198 324.487 577.882 322.125 577.897C318.553 577.854 314.979 578.073 311.406 578.005C309.01 577.96 306.385 578.042 304.633 576.244C302.825 570.308 302.758 530.036 305.163 524.703C306.908 520.834 310.389 519.024 314.155 517.604Z"/>
	<path fill="white" d="M315.232 528.401C315.723 528.421 316.215 528.43 316.703 528.478C318.167 528.624 319.204 529.128 319.976 530.403C321.634 533.137 321.158 563.518 320.371 567.924L314.117 567.859C314.03 561.056 312.738 532.827 315.232 528.401Z"/>
	<path fill="white" d="M759.883 403.727Q768.612 403.485 777.343 403.615C777.735 411.003 777.5 418.51 777.523 425.914L777.387 474.519L777.395 598.495L657.073 598.515C657.073 591.98 656.653 585.445 656.753 578.912C657.87 578.115 659.264 578.331 660.577 578.338C664.071 578.416 671.921 579.343 674.622 576.724C675.255 576.111 675.613 575.429 675.722 574.573C676.006 572.35 674.679 570.379 673.391 568.714C673.204 558.261 674.825 536.152 672.537 527.121C671.589 523.377 669.46 519.864 665.971 518.011C662.289 516.055 658.761 516.431 654.926 517.572L654.727 490.058C658.925 490.067 663.171 490.244 667.363 490.101C668.842 490.05 672.516 489.861 673.428 488.511C674.092 487.526 674.119 486.201 674.108 485.051C674.069 480.728 673.125 476.415 673.031 472.09C672.835 463.086 674.64 451.327 672.563 442.699C671.7 439.117 669.614 435.509 666.296 433.705C662.98 431.901 658.821 432.423 655.375 433.53C655.21 433.583 655.045 433.64 654.88 433.695C653.49 427.533 654.497 419.66 654.592 413.318C659.084 410.703 661.198 408.545 663.15 403.743C676.437 404.215 689.782 403.956 703.078 404.021Q731.483 404.418 759.883 403.727Z"/>
	<path d="M751.152 432.54C755.24 432.229 759.072 432.445 762.467 435.013C765.664 437.431 767.205 441.178 767.659 445.065C768.588 453.018 767.458 461.771 767.454 469.817C767.451 474.552 768.106 479.42 767.688 484.13C767.552 485.664 767.257 487.385 766.159 488.554C763.919 490.94 759.073 490.088 756.122 489.95C752.334 490.012 748.453 490.221 744.674 490.006C743.438 489.936 741.851 489.821 741.116 488.722C739.403 486.161 740.182 443.618 741.855 439.977C743.637 436.099 747.38 434.046 751.152 432.54Z"/>
	<path fill="white" d="M754.155 442.204C755.11 442.564 755.812 443.092 756.629 443.695C758.66 446.951 757.592 473.761 757.367 479.446C756.423 480.206 755.02 480.192 753.829 480.394C752.91 480.223 752.309 480.064 751.517 479.561C750.678 475.951 750.69 449.572 751.44 445.507C751.76 443.774 752.88 443.257 754.155 442.204Z"/>
	<path d="M704.861 432.045C708.777 431.981 712.079 432.309 715.202 434.903C723.252 441.591 720.265 462.889 720.28 472.582C720.286 476.373 721.053 480.099 721.292 483.875C721.397 485.528 721.231 487.161 719.918 488.322C717.491 490.468 713.638 490.024 710.625 490.011C706.13 490.072 699.653 490.975 695.375 489.746C694.175 489.401 693.497 488.706 692.99 487.559C691.652 484.533 693.344 477.896 693.433 474.434C693.667 465.367 693.128 456.246 693.573 447.19C693.688 444.853 693.717 441.359 694.726 439.238C696.635 435.225 700.842 433.244 704.861 432.045Z"/>
	<path fill="white" d="M705.32 442.161C706.817 442.279 707.713 442.403 708.713 443.621C711.938 447.551 710.708 473.816 710.279 479.916C708.403 479.998 706.624 480.089 704.762 479.817C703.644 475.399 703.702 445.754 705.32 442.161Z"/>
	<path d="M752.438 517.103C756.432 516.975 760.016 517.661 763.085 520.432C765.245 522.383 766.255 524.945 766.841 527.742C768.783 537.017 767.057 554.716 767.305 565.072C767.374 567.957 769.26 570.421 769.315 573.253C769.34 574.556 768.734 576.087 767.746 576.971C764.961 579.466 759.71 578.57 756.204 578.47C751.824 578.529 745.841 579.243 741.678 578.003C740.54 577.664 739.894 577.129 739.35 576.042C738.588 574.52 738.357 573.305 738.966 571.701C743.491 559.777 736.361 532.843 742.745 522.93C745.04 519.367 748.47 518.019 752.438 517.103Z"/>
	<path fill="white" d="M752.869 527.221C754.452 527.478 755.309 527.659 756.563 528.767C758.148 532.058 757.97 561.985 757.372 567.5L756.516 568.028C754.729 568.073 753.15 568.051 751.392 567.709C751.239 567.261 751.164 567.097 751.097 566.572C750.382 561.004 750.599 536.99 751.255 531.176C751.429 529.633 752.016 528.493 752.869 527.221Z"/>
	<path d="M703.668 517.118C703.985 517.1 704.302 517.078 704.62 517.065C709.002 516.885 713.146 517.325 716.428 520.574C718.454 522.579 719.624 525.28 720.158 528.049C721.157 533.226 720.649 539.083 720.626 544.355Q720.543 556.387 720.66 568.419C721.59 569.532 722.517 570.754 722.861 572.192C723.18 573.523 723.204 575.02 722.267 576.132C719.762 579.107 714.395 578.508 710.978 578.402C706.454 578.351 695.941 579.868 692.454 576.991C691.327 576.06 690.997 575.271 690.94 573.822C690.853 571.625 692.187 570.156 693.538 568.62C693.557 559.031 691.488 530.655 695.548 523.277C697.51 519.71 699.864 518.274 703.668 517.118Z"/>
	<path fill="white" d="M704.749 527.362C705.726 527.383 707.309 527.286 708.234 527.615C708.871 527.842 709.494 528.205 709.791 528.834C710.797 530.959 711.087 564.743 710.115 568.271L704.14 568.238C704.095 557.62 702.929 537.056 704.749 527.362Z"/>
	<path fill="white" d="M386.255 632.25L663.891 632.143L754.832 632.057C767.942 632.088 784.858 631.187 797.529 632.53C802.6 633.068 807.266 635.098 811.04 638.547C815.47 642.596 817.82 648.027 817.902 654.016C817.982 659.902 815.799 665.415 811.608 669.566Q811.011 670.157 810.37 670.7Q809.729 671.242 809.047 671.733Q808.364 672.223 807.646 672.659Q806.927 673.094 806.177 673.471Q805.426 673.849 804.648 674.166Q803.87 674.483 803.07 674.738Q802.27 674.993 801.452 675.184Q800.634 675.376 799.803 675.502C794.755 676.24 789.121 675.664 784 675.674Q765.93 675.88 747.859 675.685L637.666 675.584L366.708 675.55L268.444 675.514L241.274 675.562C235.862 675.588 230.217 675.9 224.825 675.401C219.79 674.935 215.027 673.206 211.244 669.779C206.846 665.796 204.563 659.973 204.416 654.092Q204.407 653.563 204.425 653.035Q204.443 652.507 204.488 651.98Q204.533 651.454 204.605 650.93Q204.676 650.406 204.775 649.887Q204.874 649.368 204.999 648.854Q205.124 648.341 205.275 647.834Q205.427 647.328 205.604 646.83Q205.781 646.332 205.983 645.843Q206.186 645.355 206.413 644.878Q206.64 644.4 206.891 643.935Q207.142 643.47 207.417 643.019Q207.692 642.567 207.99 642.13Q208.287 641.694 208.607 641.273Q208.926 640.852 209.267 640.447Q209.608 640.043 209.969 639.657Q210.33 639.271 210.71 638.904Q211.318 638.314 211.97 637.773Q212.622 637.231 213.313 636.741Q214.004 636.252 214.731 635.816Q215.458 635.381 216.216 635.002Q216.974 634.624 217.759 634.305Q218.544 633.986 219.351 633.728Q220.158 633.469 220.983 633.274Q221.807 633.079 222.644 632.947C229.533 631.856 236.939 632.418 243.914 632.455L275.826 632.496L386.255 632.25Z"/>
</svg>
