<svg width="144" height="144" viewBox="0 0 144 144" fill="none" xmlns="http://www.w3.org/2000/svg">
<g clip-path="url(#clip0_54_8)">
<path d="M0 0H144V144H0V0Z" fill="#009A6E"/>
<path d="M71.0083 11.9584C70.6746 11.8279 70.3343 11.7 70.0191 11.5286C68.9527 10.9483 68.1846 10.0412 67.857 8.86305C67.5571 7.78435 67.6742 6.62708 68.2349 5.65345C68.2726 5.5893 68.3118 5.5261 68.3525 5.46386C68.3932 5.40162 68.4355 5.34041 68.4793 5.28023C68.523 5.22004 68.5681 5.16096 68.6147 5.10299C68.6614 5.04501 68.7094 4.98821 68.7587 4.93258C68.8081 4.87694 68.8589 4.82254 68.9109 4.76938C68.963 4.71622 69.0163 4.66435 69.0709 4.61379C69.1255 4.56323 69.1812 4.51403 69.2381 4.46619C69.2951 4.41835 69.3532 4.37193 69.4125 4.32692C69.4717 4.28191 69.532 4.23837 69.5933 4.19631C69.6547 4.15424 69.7171 4.11369 69.7804 4.07467C69.8437 4.03565 69.908 3.99819 69.9732 3.96229C70.0383 3.9264 70.1043 3.89213 70.1712 3.85945C70.238 3.82678 70.3056 3.79576 70.3739 3.76639C70.4423 3.73701 70.5113 3.70931 70.5809 3.68331C70.6507 3.6573 70.721 3.633 70.7919 3.61042C70.8628 3.58785 70.9342 3.56701 71.0061 3.54791C71.0736 3.52985 71.1417 3.5135 71.2101 3.49888C71.2785 3.48425 71.3472 3.47137 71.4163 3.46022C71.4854 3.44906 71.5546 3.43966 71.6241 3.43202C71.6937 3.42437 71.7634 3.41849 71.8332 3.41436C71.9031 3.41025 71.9729 3.40789 72.0429 3.4073C72.1128 3.40671 72.1828 3.40789 72.2527 3.41085C72.3225 3.4138 72.3923 3.41851 72.4619 3.42498C72.5316 3.43146 72.6011 3.43969 72.6704 3.44969C72.7396 3.45967 72.8086 3.4714 72.8772 3.48488C72.9458 3.49836 73.0141 3.51356 73.082 3.53049C73.1498 3.54741 73.2172 3.56604 73.2842 3.58637C73.3511 3.60672 73.4175 3.62873 73.4833 3.65243C73.5491 3.67612 73.6143 3.70146 73.6789 3.72845C73.7434 3.75544 73.8072 3.78404 73.8703 3.81426C73.9334 3.84447 73.9957 3.87626 74.0572 3.90963C74.1187 3.94299 74.1793 3.97789 74.239 4.01432C75.2546 4.62437 76.0618 5.69694 76.3258 6.85593C76.5711 7.93304 76.3187 9.10893 75.7244 10.0323C75.0833 11.0283 74.0597 11.6795 72.9115 11.9343C72.9017 13.4573 72.9046 14.9804 72.9202 16.5033C74.0316 17.2709 75.0798 18.5811 76.0549 19.5396C77.4239 20.8853 78.8915 22.1587 80.1977 23.5631C80.3106 26.9487 80.2118 30.3587 80.2357 33.7483H85.8071C85.9425 29.2368 85.8344 24.5408 85.8278 20.0152L85.8327 15.2408C85.8337 14.1566 85.8736 13.058 85.7521 11.9792C85.4828 11.8968 85.2127 11.814 84.9569 11.6951C83.89 11.199 83.0114 10.313 82.6189 9.19374C82.2735 8.20876 82.2905 6.85027 82.7688 5.90981C82.803 5.84369 82.8388 5.77843 82.8761 5.71404C82.9135 5.64966 82.9524 5.58621 82.9928 5.52371C83.0333 5.4612 83.0752 5.3997 83.1186 5.33922C83.1621 5.27875 83.2069 5.21936 83.2531 5.16105C83.2994 5.10275 83.3471 5.04559 83.3961 4.98959C83.4451 4.93359 83.4955 4.87881 83.5473 4.82524C83.5989 4.77168 83.6519 4.7194 83.7062 4.6684C83.7604 4.6174 83.8158 4.56774 83.8724 4.51942C83.929 4.4711 83.9868 4.42418 84.0458 4.37865C84.1047 4.33314 84.1646 4.28907 84.2256 4.24644C84.2867 4.20382 84.3487 4.1627 84.4117 4.12308C84.4748 4.08346 84.5388 4.04539 84.6036 4.00887C84.6685 3.97234 84.7342 3.93741 84.8007 3.90406C84.8672 3.87072 84.9346 3.83901 85.0027 3.80891C85.0708 3.77883 85.1396 3.75041 85.209 3.72365C85.2785 3.6969 85.3486 3.67183 85.4193 3.64846C85.4849 3.62649 85.551 3.60617 85.6175 3.58748C85.6841 3.5688 85.7512 3.55178 85.8186 3.53644C85.8861 3.52108 85.9538 3.50741 86.022 3.49542C86.0901 3.48343 86.1585 3.47313 86.2272 3.46454C86.2958 3.45594 86.3646 3.44905 86.4335 3.44386C86.5025 3.43869 86.5716 3.43523 86.6407 3.43347C86.7098 3.43172 86.779 3.43169 86.8482 3.43337C86.9173 3.43505 86.9864 3.43845 87.0553 3.44355C87.1243 3.44866 87.1931 3.45548 87.2617 3.46402C87.3305 3.47255 87.3988 3.48277 87.4669 3.49469C87.5351 3.50661 87.6029 3.52022 87.6704 3.53551C87.7378 3.55079 87.8048 3.56774 87.8715 3.58636C87.938 3.60498 88.0042 3.62524 88.0698 3.64714C88.1354 3.66903 88.2005 3.69254 88.265 3.71768C88.3294 3.7428 88.3931 3.76951 88.4562 3.7978C88.5194 3.8261 88.5818 3.85594 88.6434 3.88733C88.707 3.9197 88.7699 3.95363 88.8318 3.98912C88.8938 4.02461 88.9548 4.06162 89.0149 4.10015C89.0751 4.13867 89.1343 4.17866 89.1924 4.22013C89.2505 4.26159 89.3076 4.30448 89.3637 4.34877C89.4196 4.39307 89.4745 4.43873 89.5283 4.48575C89.5821 4.53278 89.6346 4.58111 89.686 4.63075C89.7373 4.68039 89.7873 4.73128 89.8362 4.7834C89.885 4.83553 89.9325 4.88883 89.9786 4.94332C90.0248 4.99781 90.0696 5.05341 90.1131 5.11012C90.1564 5.16683 90.1983 5.22458 90.2389 5.28337C90.2794 5.34217 90.3185 5.40194 90.356 5.46268C90.3936 5.52341 90.4297 5.58504 90.4642 5.64757C90.4987 5.71009 90.5316 5.77343 90.5629 5.8376C90.5943 5.90176 90.6241 5.96666 90.6522 6.03231C90.6803 6.09795 90.7068 6.16425 90.7317 6.23121C90.7565 6.29816 90.7797 6.3657 90.8011 6.4338C91.1523 7.53896 91.0254 8.96825 90.4639 9.98241C89.8636 11.0666 88.9035 11.5896 87.7559 11.9082L87.7101 33.753L91.9084 33.7598L91.9228 27.0149C92.5776 26.1156 93.5232 25.3041 94.3152 24.5184L99.1821 19.7464C99.0699 19.5776 98.9606 19.4069 98.8542 19.2344C98.2426 18.243 97.965 17.1242 98.2561 15.9677C98.5369 14.8521 99.3241 13.8625 100.309 13.2793C100.37 13.2438 100.432 13.2097 100.494 13.1773C100.557 13.1447 100.62 13.1138 100.684 13.0845C100.748 13.0551 100.813 13.0274 100.878 13.0013C100.943 12.9751 101.009 12.9507 101.076 12.9278C101.143 12.905 101.21 12.8838 101.278 12.8643C101.345 12.8448 101.413 12.827 101.482 12.8109C101.55 12.7948 101.619 12.7804 101.689 12.7677C101.758 12.7551 101.827 12.7441 101.897 12.7349C101.967 12.7257 102.037 12.7182 102.107 12.7125C102.177 12.7068 102.248 12.7028 102.318 12.7006C102.389 12.6983 102.459 12.6979 102.529 12.6992C102.6 12.7004 102.67 12.7035 102.74 12.7082C102.811 12.713 102.881 12.7196 102.951 12.7278C103.021 12.7361 103.09 12.7461 103.16 12.7578C103.229 12.7696 103.298 12.783 103.367 12.7982C103.436 12.8134 103.504 12.8303 103.572 12.8489C103.637 12.866 103.702 12.8847 103.766 12.905C103.83 12.9253 103.894 12.9472 103.957 12.9707C104.02 12.9942 104.083 13.0192 104.144 13.0458C104.206 13.0724 104.268 13.1005 104.328 13.1301C104.388 13.1597 104.448 13.1908 104.507 13.2233C104.566 13.2559 104.624 13.2899 104.681 13.3254C104.739 13.3608 104.795 13.3977 104.85 13.4359C104.906 13.4742 104.96 13.5138 105.014 13.5547C105.067 13.5957 105.119 13.6379 105.171 13.6815C105.222 13.725 105.272 13.7698 105.322 13.8159C105.371 13.8619 105.419 13.9092 105.465 13.9576C105.512 14.006 105.558 14.0556 105.602 14.1062C105.646 14.157 105.689 14.2087 105.731 14.2615C105.773 14.3144 105.813 14.3682 105.852 14.4229C105.891 14.4778 105.929 14.5335 105.966 14.5903C106.002 14.647 106.037 14.7045 106.07 14.763C106.108 14.8293 106.145 14.8966 106.179 14.9648C106.214 15.0329 106.247 15.1019 106.278 15.1718C106.309 15.2416 106.338 15.3121 106.366 15.3834C106.393 15.4547 106.419 15.5267 106.443 15.5994C106.467 15.672 106.489 15.7451 106.51 15.8189C106.53 15.8926 106.548 15.9668 106.565 16.0415C106.581 16.1161 106.596 16.1912 106.608 16.2667C106.621 16.342 106.632 16.4177 106.641 16.4936C106.649 16.5696 106.656 16.6457 106.661 16.722C106.666 16.7983 106.67 16.8747 106.671 16.9511C106.672 17.0276 106.671 17.104 106.668 17.1804C106.666 17.2568 106.661 17.3332 106.654 17.4094C106.648 17.4855 106.639 17.5614 106.629 17.6372C106.618 17.7129 106.606 17.7884 106.592 17.8636C106.578 17.9387 106.561 18.0134 106.543 18.0876C106.525 18.162 106.505 18.2358 106.484 18.3091C106.185 19.3233 105.331 20.2805 104.403 20.7608C103.211 21.3775 101.996 21.3285 100.75 20.9298C98.367 23.1079 96.2018 25.5305 93.8632 27.7568L93.8777 33.7371L99.7359 33.825C101.178 35.0772 102.51 36.4478 103.862 37.7952C105.894 39.8204 107.913 41.8531 110 43.8216C110.108 45.979 110.017 48.1631 110.041 50.3253C112.024 50.3668 114.013 50.336 115.996 50.3311C118.207 47.9322 120.665 45.7628 122.919 43.401C122.557 42.1359 122.509 40.8841 123.11 39.6806C123.14 39.6194 123.172 39.559 123.205 39.4995C123.238 39.4399 123.273 39.3812 123.309 39.3234C123.346 39.2655 123.383 39.2087 123.422 39.1528C123.462 39.0969 123.502 39.0421 123.544 38.9883C123.586 38.9344 123.629 38.8816 123.674 38.8299C123.718 38.7783 123.764 38.7278 123.812 38.6785C123.859 38.6292 123.907 38.5811 123.957 38.5342C124.006 38.4873 124.057 38.4417 124.109 38.3974C124.161 38.3531 124.214 38.3102 124.268 38.2686C124.322 38.2269 124.377 38.1867 124.433 38.1478C124.489 38.109 124.546 38.0716 124.604 38.0357C124.662 37.9997 124.721 37.9652 124.781 37.9323C124.841 37.8993 124.901 37.8679 124.963 37.838C125.024 37.8081 125.086 37.7798 125.149 37.753C125.212 37.7262 125.275 37.701 125.339 37.6775C125.403 37.654 125.468 37.6321 125.533 37.6118C126.667 37.2499 127.88 37.3144 128.937 37.8872C129.96 38.4415 130.796 39.3964 131.101 40.5264C131.12 40.594 131.137 40.662 131.152 40.7305C131.167 40.7989 131.181 40.8677 131.192 40.9369C131.204 41.006 131.214 41.0754 131.222 41.1451C131.231 41.2147 131.237 41.2845 131.242 41.3544C131.247 41.4244 131.25 41.4944 131.251 41.5645C131.252 41.6347 131.252 41.7047 131.249 41.7748C131.247 41.8449 131.243 41.9149 131.237 41.9847C131.231 42.0547 131.223 42.1244 131.214 42.1938C131.205 42.2633 131.194 42.3325 131.181 42.4015C131.168 42.4704 131.153 42.539 131.137 42.6071C131.121 42.6754 131.103 42.7432 131.083 42.8105C131.063 42.8777 131.042 42.9444 131.019 43.0107C130.996 43.0769 130.971 43.1425 130.944 43.2075C130.918 43.2724 130.89 43.3367 130.86 43.4003C130.831 43.4637 130.799 43.5264 130.767 43.5884C130.734 43.6504 130.699 43.7115 130.664 43.7718C130.626 43.8349 130.587 43.897 130.547 43.9581C130.506 44.0192 130.464 44.0793 130.421 44.1383C130.377 44.1973 130.332 44.2552 130.286 44.3119C130.239 44.3686 130.192 44.4242 130.142 44.4786C130.093 44.5328 130.042 44.5859 129.991 44.6378C129.939 44.6895 129.886 44.7399 129.831 44.7891C129.777 44.8382 129.721 44.8859 129.664 44.9322C129.607 44.9785 129.549 45.0233 129.49 45.0667C129.431 45.1101 129.371 45.152 129.31 45.1924C129.249 45.2327 129.186 45.2715 129.123 45.3087C129.06 45.3459 128.996 45.3815 128.931 45.4156C128.866 45.4495 128.8 45.4818 128.734 45.5124C128.667 45.5432 128.6 45.5722 128.532 45.5995C128.464 45.6268 128.395 45.6523 128.326 45.6761C128.256 45.6999 128.186 45.722 128.116 45.7424C128.045 45.7627 127.974 45.7812 127.903 45.7979C126.511 46.1305 125.364 45.6917 124.199 44.9741C123.148 45.8761 122.197 46.8751 121.214 47.8481L116.739 52.2923C114.526 52.2422 112.308 52.2745 110.094 52.2847C110.076 53.6055 110.07 54.9264 110.078 56.2473C117.331 56.2974 124.585 56.31 131.838 56.2852C131.923 56.0229 132.007 55.757 132.123 55.5064C132.63 54.4073 133.497 53.5587 134.641 53.142C134.708 53.1173 134.775 53.0942 134.843 53.0729C134.911 53.0515 134.98 53.0319 135.049 53.0141C135.118 52.9962 135.187 52.9801 135.257 52.9658C135.327 52.9515 135.397 52.9389 135.468 52.9282C135.538 52.9175 135.609 52.9085 135.68 52.9013C135.751 52.8942 135.822 52.8888 135.893 52.8853C135.964 52.8818 136.036 52.8801 136.107 52.8802C136.178 52.8803 136.25 52.8822 136.321 52.886C136.392 52.8896 136.463 52.8952 136.534 52.9026C136.605 52.9099 136.676 52.919 136.746 52.93C136.817 52.9409 136.887 52.9536 136.957 52.9681C137.027 52.9826 137.096 52.9989 137.165 53.0169C137.234 53.035 137.303 53.0548 137.371 53.0762C137.438 53.0978 137.506 53.1211 137.573 53.146C137.64 53.171 137.706 53.1977 137.771 53.226C137.837 53.2543 137.901 53.2843 137.965 53.3159C138.029 53.3461 138.092 53.378 138.154 53.4115C138.216 53.445 138.277 53.48 138.338 53.5165C138.398 53.5531 138.458 53.5912 138.516 53.6307C138.574 53.6703 138.632 53.7113 138.688 53.7538C138.745 53.7962 138.8 53.8401 138.854 53.8854C138.908 53.9307 138.961 53.9773 139.013 54.0253C139.065 54.0732 139.115 54.1224 139.164 54.173C139.214 54.2235 139.262 54.2752 139.308 54.3281C139.355 54.3811 139.4 54.4351 139.444 54.4904C139.488 54.5456 139.531 54.6019 139.572 54.6594C139.613 54.7168 139.653 54.7751 139.691 54.8345C139.729 54.8939 139.765 54.9542 139.801 55.0155C139.836 55.0767 139.869 55.1387 139.901 55.2016C139.933 55.2646 139.963 55.3284 139.992 55.3929C140.021 55.4573 140.048 55.5225 140.073 55.5884C140.099 55.6542 140.122 55.7206 140.144 55.7876C140.504 56.8764 140.438 58.1352 139.906 59.1559C139.873 59.2191 139.838 59.2814 139.801 59.3429C139.764 59.4043 139.726 59.4648 139.686 59.5245C139.647 59.584 139.606 59.6425 139.563 59.7001C139.521 59.7577 139.477 59.8141 139.432 59.8696C139.386 59.925 139.34 59.9792 139.292 60.0324C139.244 60.0855 139.194 60.1373 139.144 60.1881C139.093 60.2388 139.042 60.2882 138.989 60.3363C138.936 60.3845 138.882 60.4313 138.826 60.4768C138.771 60.5222 138.715 60.5663 138.657 60.6091C138.6 60.6518 138.542 60.6931 138.482 60.7328C138.423 60.7727 138.362 60.8111 138.301 60.848C138.24 60.8849 138.177 60.9202 138.114 60.9541C138.051 60.9878 137.987 61.02 137.923 61.0507C137.858 61.0813 137.793 61.1104 137.727 61.1378C137.66 61.1653 137.594 61.1911 137.526 61.2153C137.459 61.2395 137.391 61.262 137.323 61.2828C136.212 61.6206 135.077 61.4676 134.066 60.919C132.975 60.3267 132.239 59.3419 131.895 58.1628L110.077 58.1612C109.976 59.9941 110.038 61.8638 110.044 63.7002C112.371 63.7715 114.714 63.7172 117.042 63.7175C118.104 63.7175 119.196 63.6698 120.253 63.7678C121.178 64.5559 122.001 65.487 122.855 66.3515C124.428 67.9659 126.039 69.5406 127.689 71.0757C129.087 71.0769 130.505 71.1288 131.901 71.0449C131.988 70.7629 132.072 70.4738 132.191 70.2038C132.646 69.1795 133.47 68.34 134.534 67.9572C135.59 67.5772 136.764 67.5758 137.785 68.066C138.872 68.5879 139.779 69.5493 140.17 70.6964C140.513 71.7024 140.473 72.8228 139.991 73.7783C139.441 74.8693 138.421 75.7013 137.262 76.0717C136.21 76.4082 134.98 76.2588 134.013 75.7396C132.864 75.1234 132.234 74.1466 131.869 72.9257C130.484 72.9114 129.099 72.9091 127.714 72.919C126.71 73.7023 125.839 74.6457 124.936 75.5388C123.423 77.0587 121.895 78.5631 120.352 80.052C116.927 80.1193 113.491 80.0492 110.064 80.0693C110.046 81.919 110.045 83.7687 110.061 85.6183L131.923 85.5837C131.97 85.4471 132.019 85.3114 132.071 85.1767C132.503 84.062 133.268 83.1668 134.383 82.7002C135.458 82.2503 136.76 82.2434 137.83 82.7146C138.854 83.1662 139.753 84.0699 140.142 85.1219C140.546 86.2134 140.455 87.4025 139.974 88.453C139.519 89.4481 138.64 90.3073 137.6 90.6723C136.484 91.0638 135.264 91.0717 134.198 90.5145C132.962 89.8687 132.324 88.8204 131.937 87.5219L110.037 87.5343C110.026 89.0147 110.038 90.4949 110.074 91.9748L116.847 91.979C117.639 92.4317 118.497 93.4396 119.18 94.0908L124.158 98.8546C125.163 98.2027 126.352 97.8936 127.548 98.0829C128.708 98.2667 129.743 98.982 130.421 99.9293C131.046 100.804 131.315 101.866 131.116 102.932C130.912 104.022 130.206 105.027 129.278 105.629C128.255 106.294 126.941 106.484 125.757 106.221C125.692 106.207 125.627 106.192 125.563 106.175C125.499 106.158 125.436 106.139 125.373 106.119C125.309 106.099 125.247 106.077 125.185 106.053C125.123 106.03 125.061 106.004 125.001 105.978C124.94 105.951 124.88 105.923 124.821 105.893C124.761 105.863 124.703 105.832 124.645 105.799C124.588 105.766 124.531 105.732 124.475 105.696C124.419 105.661 124.364 105.624 124.31 105.585C124.256 105.547 124.203 105.507 124.151 105.466C124.099 105.424 124.049 105.382 123.999 105.338C123.949 105.294 123.901 105.249 123.853 105.203C123.806 105.156 123.759 105.109 123.714 105.06C123.669 105.011 123.626 104.962 123.583 104.911C123.541 104.86 123.5 104.808 123.46 104.755C123.42 104.702 123.382 104.648 123.345 104.593C123.308 104.537 123.272 104.482 123.238 104.425C122.475 103.166 122.559 101.812 122.911 100.443C120.74 98.2287 118.422 96.141 116.202 93.9751C114.187 93.8714 112.126 93.9375 110.106 93.9541C110.082 95.8454 110.13 97.7368 110.102 99.628C110.092 99.6442 110.082 99.6602 110.072 99.6767C109.563 100.538 100.767 109.438 99.9662 109.917C97.9433 110.02 95.879 109.93 93.8512 109.925C93.8245 111.977 93.8198 114.029 93.8371 116.081C94.5645 116.912 95.4079 117.658 96.1909 118.439L100.768 122.995C101.03 122.916 101.296 122.852 101.565 122.803C102.74 122.587 103.992 122.792 104.971 123.498C105.025 123.536 105.078 123.576 105.13 123.618C105.182 123.659 105.233 123.702 105.283 123.746C105.332 123.79 105.381 123.835 105.429 123.881C105.477 123.927 105.523 123.974 105.568 124.023C105.614 124.071 105.658 124.121 105.701 124.171C105.744 124.222 105.786 124.273 105.826 124.326C105.867 124.379 105.906 124.432 105.944 124.487C105.982 124.541 106.018 124.597 106.053 124.653C106.088 124.709 106.122 124.766 106.155 124.824C106.187 124.882 106.218 124.941 106.248 125C106.277 125.06 106.305 125.12 106.332 125.181C106.358 125.242 106.384 125.303 106.407 125.365C106.431 125.427 106.453 125.49 106.474 125.553C106.494 125.616 106.513 125.679 106.531 125.743C106.549 125.807 106.565 125.872 106.579 125.937C106.593 126.001 106.606 126.066 106.618 126.132C106.823 127.335 106.548 128.631 105.822 129.618C105.782 129.672 105.741 129.725 105.699 129.777C105.657 129.829 105.613 129.88 105.568 129.929C105.523 129.979 105.477 130.028 105.43 130.075C105.383 130.123 105.334 130.169 105.285 130.215C105.235 130.26 105.185 130.304 105.133 130.346C105.081 130.389 105.028 130.43 104.974 130.47C104.921 130.51 104.866 130.549 104.81 130.586C104.755 130.624 104.698 130.659 104.64 130.694C104.583 130.728 104.525 130.761 104.465 130.793C104.406 130.825 104.346 130.855 104.286 130.883C104.225 130.912 104.164 130.939 104.102 130.965C104.04 130.99 103.977 131.014 103.914 131.037C103.851 131.059 103.787 131.08 103.723 131.1C103.659 131.119 103.594 131.137 103.529 131.153C103.464 131.169 103.399 131.184 103.333 131.197C103.267 131.209 103.201 131.221 103.135 131.23C102.073 131.392 100.819 131.221 99.9512 130.561C98.9513 129.8 98.2841 128.687 98.1347 127.435C97.9776 126.118 98.426 125.164 99.2088 124.157C96.9307 121.711 94.4181 119.497 92.0691 117.126C92.0073 117.064 91.9547 117.025 91.927 116.94C91.736 116.356 91.8834 110.914 91.8759 109.93C90.5252 109.886 89.1709 109.901 87.8195 109.899C87.8046 117.273 87.7123 124.661 87.8242 132.034C88.3045 132.194 88.7722 132.374 89.1928 132.66C90.1003 133.279 90.7165 134.323 90.9225 135.394C90.9362 135.465 90.9481 135.535 90.9584 135.607C90.9686 135.678 90.9771 135.749 90.9838 135.821C90.9905 135.892 90.9954 135.964 90.9986 136.036C91.0018 136.107 91.0032 136.179 91.0028 136.251C91.0024 136.323 91.0003 136.395 90.9963 136.467C90.9924 136.538 90.9867 136.61 90.9792 136.681C90.9718 136.753 90.9625 136.824 90.9515 136.895C90.9405 136.966 90.9278 137.037 90.9133 137.107C90.8989 137.178 90.8828 137.248 90.8648 137.317C90.8468 137.387 90.8272 137.456 90.8059 137.525C90.7845 137.593 90.7615 137.661 90.7369 137.729C90.7122 137.796 90.6859 137.863 90.6578 137.929C90.6298 137.996 90.6002 138.061 90.569 138.126C90.5377 138.191 90.505 138.254 90.4707 138.317C90.4363 138.381 90.4003 138.443 90.3629 138.504C90.3254 138.566 90.2865 138.626 90.2461 138.685C89.5524 139.699 88.6081 140.223 87.4216 140.435C86.5225 140.535 85.6523 140.513 84.8154 140.122C83.8454 139.67 83.0585 138.771 82.6889 137.771C82.663 137.701 82.6389 137.63 82.6166 137.558C82.5943 137.486 82.5738 137.414 82.555 137.341C82.5363 137.268 82.5193 137.195 82.5043 137.121C82.4891 137.048 82.4758 136.974 82.4643 136.9C82.4529 136.825 82.4433 136.751 82.4355 136.676C82.4277 136.601 82.4218 136.527 82.4178 136.452C82.4137 136.377 82.4116 136.301 82.4113 136.226C82.4109 136.151 82.4124 136.076 82.4158 136.001C82.4193 135.926 82.4246 135.851 82.4317 135.776C82.4388 135.701 82.4478 135.627 82.4585 135.552C82.4693 135.478 82.482 135.404 82.4965 135.33C82.511 135.257 82.5272 135.183 82.5453 135.11C82.5635 135.037 82.5834 134.965 82.6051 134.893C82.6268 134.821 82.6503 134.75 82.6755 134.679C82.7008 134.608 82.7279 134.538 82.7565 134.469C82.7852 134.399 82.8157 134.331 82.8478 134.263C83.4675 132.968 84.5412 132.3 85.8544 131.848C85.897 124.553 85.8924 117.258 85.8404 109.963C83.9062 109.868 81.9561 109.907 80.0194 109.914C79.9893 113.375 80.0786 116.844 80.0809 120.307C79.5395 120.977 78.8195 121.554 78.2035 122.162C76.4859 123.859 74.7537 125.517 72.9821 127.157C72.9495 128.74 72.9638 130.335 72.9949 131.919C73.2757 132.02 73.5583 132.126 73.8305 132.249C73.8953 132.278 73.9593 132.309 74.0226 132.342C74.0859 132.374 74.1483 132.409 74.2099 132.444C74.2715 132.48 74.3322 132.517 74.3919 132.556C74.4517 132.594 74.5105 132.635 74.5682 132.676C74.626 132.718 74.6826 132.761 74.7382 132.805C74.7939 132.849 74.8484 132.895 74.9018 132.942C74.9552 132.989 75.0074 133.038 75.0583 133.087C75.1093 133.137 75.159 133.188 75.2075 133.24C75.256 133.292 75.3031 133.346 75.349 133.4C75.3948 133.454 75.4393 133.51 75.4823 133.567C75.5254 133.623 75.5671 133.681 75.6073 133.74C75.6475 133.798 75.6862 133.858 75.7235 133.919C75.7608 133.979 75.7965 134.041 75.8308 134.103C75.865 134.166 75.8977 134.229 75.9288 134.293C75.9598 134.357 75.9893 134.422 76.0172 134.487C76.0451 134.553 76.0713 134.619 76.096 134.686C76.1205 134.754 76.1432 134.823 76.1643 134.892C76.1854 134.962 76.2048 135.032 76.2224 135.102C76.24 135.172 76.2559 135.243 76.2699 135.314C76.2841 135.386 76.2964 135.457 76.3069 135.529C76.3175 135.601 76.3263 135.673 76.3332 135.745C76.3401 135.817 76.3453 135.89 76.3488 135.962C76.3522 136.034 76.3537 136.107 76.3535 136.18C76.3533 136.252 76.3513 136.325 76.3474 136.397C76.3437 136.47 76.3381 136.542 76.3307 136.614C76.3232 136.686 76.3139 136.758 76.303 136.83C76.292 136.902 76.2793 136.973 76.2647 137.044C76.2502 137.115 76.2339 137.186 76.2159 137.256C76.1979 137.327 76.1781 137.396 76.1566 137.466C76.1351 137.535 76.1119 137.604 76.087 137.672C76.062 137.74 76.0355 137.808 76.0072 137.875C75.9789 137.941 75.949 138.007 75.9175 138.073C75.4047 139.114 74.4699 139.999 73.3579 140.36C73.2895 140.382 73.2207 140.402 73.1513 140.42C73.082 140.438 73.0123 140.454 72.9422 140.469C72.8721 140.483 72.8016 140.496 72.7308 140.507C72.66 140.518 72.589 140.528 72.5178 140.535C72.4465 140.543 72.3751 140.549 72.3036 140.553C72.2321 140.557 72.1605 140.559 72.0889 140.559C72.0173 140.56 71.9456 140.558 71.874 140.555C71.8025 140.552 71.731 140.548 71.6597 140.541C71.5883 140.534 71.5172 140.526 71.4464 140.516C71.3754 140.506 71.3047 140.494 71.2344 140.48C71.1641 140.466 71.0942 140.451 71.0246 140.434C70.9551 140.417 70.886 140.398 70.8173 140.378C70.7487 140.357 70.6806 140.335 70.6132 140.311C70.5456 140.287 70.4786 140.261 70.4123 140.234C70.3461 140.207 70.2806 140.178 70.2157 140.148C70.151 140.117 70.0869 140.085 70.0237 140.051C68.9955 139.506 68.1868 138.435 67.87 137.326C67.5512 136.21 67.7339 134.998 68.3058 133.995C68.9247 132.91 69.8991 132.214 71.0935 131.892L71.1245 127.171C69.2803 125.43 67.4135 123.722 65.5843 121.965C65.0447 121.447 64.3026 120.916 63.9021 120.285L63.8955 109.994C62.6563 109.749 59.5939 109.903 58.193 109.929C58.1633 117.252 58.1788 124.574 58.2396 131.897C58.427 131.958 58.613 132.023 58.7977 132.092C59.8542 132.494 60.7161 133.282 61.172 134.321C61.6537 135.419 61.6638 136.76 61.2132 137.871C60.793 138.907 59.9012 139.78 58.866 140.199C57.7531 140.65 56.5377 140.552 55.4505 140.084C54.4025 139.633 53.5528 138.662 53.1515 137.601C52.764 136.576 52.8331 135.302 53.3104 134.319C53.9125 133.078 54.9974 132.385 56.2663 131.96C56.3975 128.865 56.2929 125.724 56.2801 122.625L56.2691 109.889C54.881 109.834 53.4763 109.871 52.0876 109.901C52.0537 112.206 52.1608 114.519 52.0724 116.822C51.5077 117.611 50.7005 118.306 50.0306 119.015C48.3893 120.752 46.7066 122.469 45.133 124.267C45.7765 125.415 46.1547 126.59 45.8181 127.907C45.5373 129.006 44.7637 129.976 43.7884 130.545C42.7659 131.142 41.5671 131.28 40.43 130.961C39.375 130.665 38.4812 129.989 37.9544 129.018C37.9181 128.953 37.8835 128.886 37.8506 128.819C37.8177 128.752 37.7865 128.684 37.7571 128.615C37.7277 128.546 37.7 128.477 37.6741 128.407C37.6483 128.336 37.6242 128.265 37.6019 128.194C37.5796 128.122 37.5592 128.051 37.5407 127.978C37.522 127.905 37.5053 127.833 37.4905 127.759C37.4756 127.686 37.4626 127.612 37.4515 127.538C37.4404 127.464 37.4311 127.39 37.4238 127.315C37.4165 127.241 37.4111 127.166 37.4076 127.091C37.4042 127.017 37.4026 126.942 37.4029 126.867C37.4032 126.792 37.4055 126.717 37.4096 126.643C37.4137 126.568 37.4198 126.493 37.4278 126.419C37.4356 126.344 37.4455 126.27 37.4573 126.196C37.469 126.122 37.4826 126.049 37.4981 125.976C37.5135 125.902 37.5309 125.83 37.5501 125.757C37.5693 125.685 37.5904 125.613 37.6132 125.542C37.9462 124.517 38.7478 123.589 39.7119 123.105C40.9801 122.468 42.2653 122.604 43.5613 123.042C44.8637 121.719 46.1232 120.339 47.4067 118.995C48.3254 118.034 49.311 117.103 50.1526 116.074L50.1394 109.872C48.1259 109.773 46.1025 109.957 44.0932 109.86C43.2353 109.253 34.3081 100.243 33.9782 99.6848L33.9481 93.9542C31.9459 93.9167 29.8735 93.8575 27.8782 93.9998C25.6109 96.3307 23.1764 98.535 20.9824 100.929C21.2955 102.238 21.2413 103.475 20.5152 104.644C19.9472 105.559 18.9946 106.293 17.9343 106.517C16.8325 106.751 15.6261 106.561 14.6902 105.924C14.6283 105.882 14.5674 105.838 14.5077 105.793C14.4479 105.747 14.3893 105.701 14.3318 105.653C14.2743 105.605 14.2181 105.555 14.163 105.504C14.1081 105.453 14.0544 105.401 14.0019 105.348C13.9495 105.294 13.8984 105.239 13.8487 105.183C13.799 105.127 13.7507 105.07 13.7038 105.011C13.6569 104.953 13.6115 104.893 13.5676 104.832C13.5237 104.772 13.4813 104.71 13.4404 104.647C13.3995 104.584 13.3603 104.52 13.3226 104.456C13.2848 104.391 13.2488 104.325 13.2143 104.259C13.1798 104.192 13.147 104.125 13.1159 104.057C13.0848 103.988 13.0554 103.92 13.0277 103.85C13 103.78 12.974 103.71 12.9498 103.639C12.9255 103.568 12.9031 103.497 12.8824 103.425C12.8617 103.353 12.8428 103.28 12.8257 103.207C12.8086 103.134 12.7933 103.061 12.7798 102.987C12.58 101.882 12.8408 100.67 13.5073 99.7614C13.5486 99.7061 13.5913 99.6519 13.6354 99.5988C13.6794 99.5456 13.7247 99.4935 13.7712 99.4426C13.8178 99.3916 13.8656 99.3419 13.9146 99.2932C13.9636 99.2446 14.0137 99.1971 14.065 99.1509C14.1163 99.1048 14.1687 99.0599 14.2221 99.0162C14.2756 98.9726 14.3301 98.9303 14.3856 98.8893C14.4412 98.8484 14.4978 98.8088 14.5552 98.7705C14.6127 98.7323 14.6711 98.6955 14.7303 98.6601C14.7897 98.6248 14.8498 98.5909 14.9106 98.5584C14.9715 98.5259 15.0332 98.4949 15.0957 98.4655C15.1581 98.436 15.2212 98.4082 15.2849 98.3818C15.3488 98.3555 15.4132 98.3307 15.4782 98.3074C15.5431 98.2842 15.6087 98.2625 15.6748 98.2425C15.7409 98.2225 15.8074 98.2041 15.8743 98.1872C15.9412 98.1704 16.0086 98.1553 16.0762 98.1418C16.1439 98.1283 16.2119 98.1164 16.2801 98.1062C17.7218 97.8884 18.7632 98.3797 19.9067 99.2136C21.0961 97.9428 22.4011 96.7584 23.6278 95.5201C24.7715 94.3654 25.8678 93.1217 27.0747 92.035C27.8481 91.9898 28.6429 92.0295 29.4187 92.0302L33.9646 92.0332C34.0242 90.5283 33.9881 89.0062 33.9781 87.4998C31.5484 87.4198 29.0929 87.5062 26.6604 87.5119L12.2015 87.5363C12.167 87.6296 12.1317 87.7227 12.0957 87.8154C11.6099 89.0626 10.8933 90.055 9.62297 90.6006C8.59797 91.0408 7.31383 91.034 6.28864 90.5958C5.25135 90.1524 4.38798 89.2353 3.97407 88.1883C3.56215 87.1463 3.62568 85.9926 4.06936 84.9736C4.53415 83.9062 5.40884 83.0202 6.5067 82.611C7.55342 82.2208 8.80146 82.2428 9.81933 82.7138C11.0248 83.2717 11.8144 84.3504 12.2708 85.562L33.9358 85.566C33.9618 83.7437 33.9645 81.9215 33.9438 80.0992C30.4443 80.0252 26.9089 80.2714 23.4159 80.0858C22.637 79.4495 21.9329 78.6064 21.2309 77.8819C19.6356 76.2119 18.0265 74.5553 16.4035 72.9121C14.9984 72.8789 13.5881 72.9091 12.1826 72.9145C12.0895 73.2869 11.9638 73.6563 11.7795 73.9939C11.2135 75.0313 10.2363 75.7626 9.10615 76.0809C8.05322 76.3775 6.87115 76.2806 5.9131 75.7399C4.91543 75.177 4.05467 74.1648 3.76667 73.0454C3.48699 71.9582 3.70601 70.732 4.29794 69.7842C4.92973 68.7727 6.0126 67.9811 7.18794 67.7423C8.30204 67.516 9.48278 67.8274 10.4114 68.4589C11.3278 69.0822 11.9332 69.9678 12.1347 71.065C13.5755 71.081 15.0164 71.0855 16.4572 71.0785C17.4064 70.0006 18.4482 69.0044 19.447 67.9729C20.7832 66.5931 22.0965 65.1859 23.4621 63.8353C26.9537 63.7133 30.4671 63.7843 33.9609 63.7861C34.0103 61.9221 33.9767 60.0503 33.9747 58.1853L12.1465 58.1629C12.0416 58.4575 11.9313 58.7491 11.7957 59.0313C11.2875 60.0896 10.4328 60.8468 9.3187 61.224C8.19058 61.606 7.01826 61.5435 5.95135 61.0019C5.88879 60.9698 5.82706 60.9363 5.76614 60.9013C5.70523 60.8663 5.64521 60.8297 5.58609 60.7916C5.52698 60.7537 5.46883 60.7142 5.41165 60.6734C5.35447 60.6325 5.29833 60.5903 5.24324 60.5467C5.18814 60.5031 5.13414 60.4581 5.08125 60.4118C5.02837 60.3655 4.97665 60.3179 4.9261 60.2691C4.87555 60.2203 4.82623 60.1703 4.77815 60.119C4.73005 60.0677 4.68325 60.0153 4.63775 59.9618C4.59224 59.9083 4.54808 59.8536 4.50525 59.7978C4.46243 59.7421 4.421 59.6854 4.38097 59.6277C4.34094 59.5699 4.30235 59.5112 4.26522 59.4515C4.22807 59.3918 4.19242 59.3313 4.15824 59.2699C4.12408 59.2085 4.09145 59.1463 4.06034 59.0832C4.02924 59.0202 3.99971 58.9565 3.97173 58.8921C3.94377 58.8276 3.9174 58.7624 3.89263 58.6966C3.86787 58.6309 3.84474 58.5646 3.82323 58.4976C3.49833 57.4549 3.6005 56.2157 4.11538 55.254C4.66416 54.2291 5.61688 53.3663 6.74472 53.046C6.81345 53.0269 6.88261 53.0094 6.9522 52.9937C7.02178 52.9779 7.0917 52.9639 7.16197 52.9515C7.23223 52.9392 7.30276 52.9286 7.37355 52.9197C7.44433 52.9108 7.51529 52.9036 7.58643 52.8982C7.65757 52.8928 7.72879 52.8891 7.80011 52.8871C7.87142 52.8851 7.94275 52.8849 8.01408 52.8864C8.08541 52.888 8.15665 52.8913 8.22782 52.8962C8.29899 52.9012 8.36999 52.908 8.44084 52.9165C8.51168 52.9249 8.58226 52.9351 8.65261 52.947C8.72295 52.9589 8.79295 52.9725 8.86263 52.9879C8.9323 53.0032 9.00157 53.0202 9.07042 53.039C9.13927 53.0576 9.20762 53.078 9.27546 53.1001C9.34331 53.1222 9.41058 53.1458 9.47729 53.1712C9.54398 53.1965 9.61001 53.2234 9.67539 53.252C9.74077 53.2805 9.80541 53.3107 9.86932 53.3424C9.93323 53.3741 9.99633 53.4074 10.0586 53.4421C11.1692 54.0748 11.7494 55.0505 12.0933 56.2476C14.7942 56.3378 17.5109 56.2912 20.2139 56.2956L33.9774 56.2923L34.0069 51.9857L26.8674 51.9749C24.4612 49.6589 22.0889 47.3086 19.7506 44.9242C19.5135 45.1207 19.2717 45.3064 18.9962 45.4464C18.9336 45.4778 18.8704 45.5078 18.8063 45.5362C18.7423 45.5647 18.6776 45.5916 18.6123 45.6169C18.5469 45.6422 18.481 45.666 18.4146 45.6881C18.3481 45.7102 18.2811 45.7307 18.2136 45.7495C18.1462 45.7685 18.0783 45.7857 18.01 45.8013C17.9417 45.8169 17.8731 45.8309 17.8041 45.8432C17.7351 45.8555 17.6659 45.8661 17.5964 45.875C17.5269 45.8839 17.4573 45.8911 17.3874 45.8966C17.3176 45.9023 17.2476 45.9061 17.1776 45.9083C17.1076 45.9105 17.0376 45.9109 16.9675 45.9097C16.8975 45.9085 16.8275 45.9056 16.7576 45.901C16.6876 45.8964 16.6179 45.8901 16.5483 45.8821C16.4787 45.8742 16.4093 45.8646 16.3402 45.8533C16.271 45.842 16.2022 45.8289 16.1338 45.8142C16.0652 45.7996 15.9971 45.7833 15.9294 45.7654C15.8616 45.7474 15.7944 45.7278 15.7276 45.7066C14.6587 45.3558 13.7313 44.5299 13.2401 43.5191C12.7669 42.5453 12.6533 41.3526 13.0086 40.3215C13.3764 39.2543 14.2013 38.2334 15.2318 37.7483C16.2464 37.2705 17.5349 37.2538 18.5836 37.6317C19.6629 38.0205 20.5246 38.8845 20.9908 39.9244C21.5345 41.1375 21.4348 42.2979 20.9744 43.5154C22.1531 44.5905 23.2692 45.7387 24.3996 46.8644C25.476 47.9363 26.5806 48.9939 27.603 50.1175L33.977 50.1074L34.0259 43.7749C34.6771 43.0635 35.4053 42.3987 36.0899 41.7173L40.0587 37.7571L42.5756 35.2595C43.1073 34.7337 43.64 34.1357 44.2529 33.7061C46.142 33.8333 48.1427 33.795 50.0344 33.6978C50.1102 31.7256 50.0348 29.7314 49.9909 27.7584C49.2185 27.0496 48.4958 26.2477 47.7685 25.4908C46.3053 23.9681 44.8606 22.4423 43.3198 20.9969C42.0844 21.3359 40.8555 21.395 39.6973 20.7615C38.7263 20.2302 37.9288 19.2413 37.6286 18.1756C37.3051 17.0281 37.4858 15.7164 38.1021 14.6959C38.6795 13.7396 39.6766 13.0794 40.7573 12.8313C41.8936 12.5704 43.0345 12.7579 44.0198 13.3797C44.9821 13.987 45.6943 14.9394 45.9374 16.0585C46.2523 17.5075 45.7379 18.6393 44.9734 19.8143C46.5452 21.6319 48.336 23.2972 50.0141 25.0185C50.6479 25.6686 51.4815 26.3651 51.9532 27.1343L51.9574 33.7337C53.3827 33.7667 54.8146 33.7418 56.2404 33.7431L56.1856 11.8903C55.7371 11.7732 55.3303 11.6262 54.9335 11.3803C53.974 10.7858 53.2547 9.82844 53.0159 8.71843C52.7718 7.58399 53.0269 6.38186 53.6548 5.41373C54.341 4.35586 55.3168 3.72525 56.5431 3.46248C57.594 3.3558 58.5935 3.49982 59.5045 4.06401C59.5648 4.10211 59.6241 4.14165 59.6824 4.18265C59.7407 4.22365 59.798 4.26604 59.8542 4.30983C59.9106 4.35362 59.9657 4.39876 60.0197 4.44524C60.0738 4.49172 60.1267 4.5395 60.1785 4.58857C60.2301 4.63763 60.2806 4.68793 60.3299 4.73946C60.3793 4.79098 60.4273 4.84368 60.4739 4.89756C60.5206 4.95143 60.566 5.00641 60.6101 5.0625C60.654 5.11858 60.6967 5.1757 60.7379 5.23387C60.7792 5.29204 60.8189 5.35118 60.8573 5.41128C60.8956 5.47139 60.9325 5.5324 60.9678 5.5943C61.0033 5.6562 61.0371 5.71894 61.0694 5.7825C61.1017 5.84605 61.1325 5.91036 61.1616 5.97542C61.1908 6.04048 61.2183 6.1062 61.2443 6.17261C61.2703 6.23901 61.2946 6.30601 61.3173 6.3736C61.34 6.4412 61.361 6.5093 61.3804 6.57792C61.3997 6.64653 61.4174 6.71558 61.4334 6.78506C61.6856 7.87081 61.5433 9.14473 60.9287 10.0836C60.2727 11.0859 59.2937 11.6675 58.1403 11.9182L58.1511 33.7517C60.104 33.7621 62.0569 33.7578 64.0097 33.7389C64.039 30.3187 64.0339 26.8986 63.9942 23.4785C64.5538 22.8217 65.267 22.2353 65.8828 21.6239C67.5939 19.9252 69.3366 18.2595 71.0054 16.5185C71.0678 15.0061 71.0309 13.4716 71.0083 11.9584Z" fill="white"/>
<path d="M126.464 99.9243C126.954 99.9039 127.338 99.8951 127.794 100.115C127.87 100.152 127.944 100.193 128.015 100.238C128.087 100.283 128.156 100.331 128.223 100.383C128.29 100.434 128.354 100.489 128.415 100.547C128.477 100.605 128.535 100.666 128.59 100.73C128.645 100.794 128.697 100.861 128.746 100.93C128.795 100.999 128.84 101.07 128.881 101.144C128.923 101.217 128.961 101.292 128.994 101.37C129.029 101.447 129.059 101.526 129.085 101.606C129.254 102.14 129.223 102.702 128.963 103.201C128.624 103.852 128.055 104.155 127.381 104.353C126.923 104.406 126.491 104.411 126.053 104.246C125.982 104.219 125.912 104.189 125.844 104.155C125.775 104.121 125.709 104.084 125.645 104.043C125.58 104.003 125.518 103.959 125.458 103.912C125.399 103.864 125.341 103.814 125.287 103.761C125.232 103.708 125.18 103.653 125.131 103.594C125.083 103.536 125.037 103.475 124.994 103.412C124.951 103.349 124.912 103.284 124.876 103.217C124.84 103.149 124.808 103.081 124.779 103.01C124.75 102.941 124.725 102.87 124.703 102.799C124.682 102.727 124.664 102.654 124.65 102.58C124.636 102.507 124.626 102.432 124.619 102.358C124.613 102.283 124.611 102.208 124.612 102.133C124.614 102.058 124.619 101.983 124.628 101.909C124.638 101.835 124.651 101.761 124.668 101.688C124.685 101.615 124.706 101.543 124.73 101.472C124.755 101.401 124.783 101.332 124.815 101.264C125.152 100.534 125.736 100.176 126.464 99.9243Z" fill="#009A6E"/>
<path d="M101.992 14.6298C102.394 14.6094 102.763 14.6242 103.143 14.7714C103.182 14.7865 103.22 14.8026 103.258 14.8196C103.296 14.8367 103.334 14.8547 103.371 14.8736C103.408 14.8926 103.444 14.9125 103.48 14.9334C103.516 14.9542 103.552 14.976 103.587 14.9986C103.622 15.0212 103.656 15.0448 103.69 15.0692C103.723 15.0936 103.757 15.1188 103.789 15.1449C103.821 15.171 103.853 15.198 103.884 15.2257C103.915 15.2534 103.946 15.2819 103.975 15.3112C104.005 15.3405 104.034 15.3705 104.062 15.4012C104.09 15.432 104.117 15.4635 104.144 15.4956C104.17 15.5277 104.196 15.5604 104.22 15.5939C104.245 15.6274 104.269 15.6615 104.292 15.6961C104.315 15.7308 104.337 15.7661 104.359 15.8019C104.38 15.8377 104.4 15.874 104.42 15.9109C104.439 15.9477 104.457 15.985 104.475 16.0228C104.492 16.0606 104.509 16.0988 104.524 16.1374C104.539 16.1731 104.552 16.2092 104.565 16.2456C104.577 16.282 104.589 16.3188 104.599 16.3558C104.61 16.3928 104.619 16.4301 104.628 16.4676C104.637 16.5051 104.644 16.5428 104.651 16.5807C104.657 16.6186 104.663 16.6567 104.668 16.6949C104.672 16.7331 104.676 16.7715 104.679 16.8099C104.681 16.8482 104.683 16.8867 104.684 16.9252C104.684 16.9636 104.684 17.0021 104.683 17.0407C104.681 17.0791 104.679 17.1175 104.675 17.1558C104.672 17.1942 104.668 17.2324 104.662 17.2706C104.657 17.3086 104.651 17.3466 104.643 17.3843C104.636 17.4221 104.628 17.4597 104.619 17.4971C104.609 17.5344 104.599 17.5715 104.588 17.6084C104.576 17.6452 104.564 17.6817 104.551 17.7179C104.538 17.7541 104.524 17.7899 104.509 17.8253C104.494 17.8608 104.478 17.8958 104.461 17.9304C104.126 18.6339 103.556 19.0164 102.837 19.2562C102.371 19.3002 101.958 19.3016 101.524 19.1088C101.452 19.0765 101.382 19.0406 101.314 19.0012C101.245 18.9619 101.179 18.9192 101.115 18.8733C101.05 18.8273 100.989 18.7783 100.929 18.7262C100.87 18.6742 100.813 18.6193 100.759 18.5615C100.705 18.5039 100.654 18.4436 100.607 18.3808C100.559 18.3181 100.514 18.2531 100.472 18.1859C100.431 18.1187 100.393 18.0496 100.358 17.9786C100.324 17.9077 100.293 17.8351 100.265 17.7611C100.238 17.6902 100.215 17.6181 100.195 17.5448C100.176 17.4716 100.16 17.3976 100.147 17.3227C100.135 17.2478 100.127 17.1726 100.122 17.0969C100.117 17.0212 100.116 16.9454 100.119 16.8697C100.122 16.7939 100.128 16.7184 100.139 16.6432C100.149 16.5682 100.163 16.4937 100.181 16.4199C100.199 16.3462 100.22 16.2736 100.245 16.202C100.271 16.1304 100.299 16.0603 100.331 15.9916C100.669 15.2654 101.266 14.8888 101.992 14.6298Z" fill="#009A6E"/>
<path d="M41.4008 124.604C41.9151 124.552 42.4161 124.602 42.8744 124.857C43.4121 125.157 43.7788 125.681 43.9321 126.271C43.952 126.346 43.9679 126.421 43.98 126.497C43.9922 126.573 44.0005 126.65 44.0049 126.726C44.0092 126.803 44.0097 126.88 44.0062 126.957C44.0027 127.034 43.9954 127.111 43.9841 127.187C43.9729 127.263 43.9578 127.339 43.9388 127.413C43.9199 127.488 43.8972 127.561 43.8706 127.634C43.8442 127.706 43.8141 127.777 43.7805 127.846C43.7468 127.915 43.7098 127.983 43.6693 128.048C43.2972 128.649 42.7205 128.987 42.0502 129.159C41.5811 129.173 41.1666 129.146 40.734 128.948C40.1654 128.688 39.7107 128.215 39.5072 127.62C39.4825 127.547 39.4617 127.474 39.4446 127.399C39.4275 127.324 39.4144 127.249 39.4051 127.173C39.3958 127.097 39.3905 127.021 39.3891 126.944C39.3876 126.867 39.3901 126.791 39.3965 126.715C39.403 126.638 39.4134 126.562 39.4277 126.487C39.442 126.412 39.4601 126.338 39.482 126.264C39.5039 126.191 39.5296 126.119 39.5589 126.048C39.5884 125.977 39.6213 125.908 39.6578 125.841C40.0386 125.141 40.6645 124.814 41.4008 124.604Z" fill="#009A6E"/>
<path d="M16.5007 100.068C16.9407 100.048 17.3322 100.033 17.7542 100.191C18.3358 100.408 18.7862 100.851 19.0322 101.419C19.2786 101.989 19.3035 102.635 19.0683 103.212C18.7722 103.939 18.2074 104.357 17.5082 104.653C16.9747 104.716 16.4917 104.706 15.9982 104.468C15.9286 104.434 15.8609 104.397 15.795 104.356C15.7291 104.315 15.6654 104.271 15.6039 104.224C15.5424 104.177 15.4834 104.127 15.427 104.074C15.3705 104.021 15.3167 103.965 15.2657 103.907C15.2148 103.848 15.1669 103.788 15.122 103.724C15.077 103.661 15.0353 103.596 14.997 103.529C14.9585 103.462 14.9235 103.392 14.8919 103.322C14.8604 103.251 14.8325 103.179 14.8081 103.105C14.5986 102.49 14.633 101.797 14.9396 101.221C15.2841 100.573 15.8274 100.274 16.5007 100.068Z" fill="#009A6E"/>
<path d="M41.3165 14.7019C41.7454 14.678 42.1058 14.6768 42.5178 14.8295C43.1131 15.0503 43.6144 15.4852 43.8736 16.0699C44.1235 16.634 44.107 17.2627 43.8612 17.8256C43.5428 18.5548 42.9677 19.0022 42.2535 19.3005C41.8053 19.3562 41.4084 19.3461 40.9828 19.1767C40.9439 19.1615 40.9054 19.1452 40.8673 19.128C40.8292 19.1107 40.7917 19.0925 40.7547 19.0733C40.7175 19.054 40.6809 19.0339 40.6448 19.0128C40.6088 18.9917 40.5734 18.9697 40.5384 18.9467C40.5035 18.9238 40.4692 18.9 40.4355 18.8752C40.4018 18.8506 40.3688 18.825 40.3365 18.7986C40.304 18.7722 40.2723 18.7449 40.2414 18.7169C40.2105 18.6889 40.1803 18.66 40.1508 18.6304C40.1213 18.6008 40.0926 18.5704 40.0648 18.5393C40.0368 18.5082 40.0097 18.4763 39.9835 18.4438C39.9572 18.4114 39.9318 18.3782 39.9073 18.3444C39.8828 18.3105 39.8592 18.2761 39.8364 18.241C39.8136 18.2061 39.7918 18.1705 39.7709 18.1343C39.75 18.0981 39.73 18.0614 39.7111 18.0242C39.6921 17.987 39.674 17.9493 39.657 17.9111C39.6399 17.8731 39.6238 17.8345 39.6087 17.7955C39.3861 17.2228 39.3874 16.578 39.6523 16.0193C39.9905 15.3058 40.597 14.9408 41.3165 14.7019Z" fill="#009A6E"/>
<path d="M135.958 69.6305C136.376 69.6208 136.727 69.6909 137.102 69.8808C137.173 69.9161 137.242 69.955 137.309 69.9974C137.376 70.0396 137.441 70.0853 137.503 70.1343C137.565 70.1833 137.625 70.2353 137.682 70.2904C137.739 70.3455 137.793 70.4033 137.844 70.4638C137.895 70.5245 137.943 70.5875 137.988 70.653C138.032 70.7185 138.074 70.7861 138.111 70.8559C138.149 70.9255 138.183 70.997 138.214 71.0702C138.244 71.1433 138.271 71.2179 138.293 71.2938C138.315 71.3683 138.333 71.4437 138.347 71.5201C138.361 71.5965 138.371 71.6733 138.377 71.7507C138.383 71.828 138.385 71.9055 138.383 71.9831C138.382 72.0608 138.376 72.1381 138.366 72.215C138.356 72.2921 138.343 72.3684 138.325 72.444C138.308 72.5196 138.286 72.5941 138.261 72.6676C138.236 72.741 138.207 72.8129 138.174 72.8833C138.142 72.9538 138.106 73.0224 138.066 73.0891C137.646 73.8061 137.022 74.0808 136.253 74.2652C135.735 74.28 135.285 74.1987 134.838 73.9249C134.772 73.8848 134.709 73.8416 134.648 73.7952C134.587 73.7489 134.529 73.6997 134.473 73.6476C134.416 73.5954 134.363 73.5405 134.313 73.483C134.262 73.4256 134.214 73.3658 134.17 73.3036C134.125 73.2414 134.084 73.177 134.045 73.1107C134.007 73.0444 133.972 72.9763 133.941 72.9065C133.909 72.8366 133.881 72.7654 133.857 72.6929C133.832 72.6202 133.812 72.5466 133.795 72.4719C133.786 72.4354 133.778 72.3987 133.771 72.3618C133.764 72.3249 133.758 72.2878 133.753 72.2505C133.748 72.2132 133.744 72.1759 133.741 72.1384C133.738 72.101 133.736 72.0635 133.735 72.0259C133.734 71.9884 133.734 71.9508 133.735 71.9132C133.735 71.8756 133.737 71.8381 133.74 71.8007C133.743 71.7632 133.747 71.7259 133.752 71.6887C133.757 71.6514 133.762 71.6142 133.769 71.5773C133.776 71.5403 133.784 71.5036 133.792 71.467C133.801 71.4305 133.811 71.3941 133.821 71.3581C133.832 71.3221 133.844 71.2863 133.856 71.2509C133.868 71.2154 133.882 71.1803 133.896 71.1456C133.91 71.1108 133.926 71.0764 133.942 71.0425C133.958 71.0086 133.975 70.9751 133.993 70.9421C134.011 70.909 134.029 70.8764 134.049 70.8444C134.068 70.8123 134.089 70.7807 134.11 70.7497C134.554 70.0921 135.207 69.7897 135.958 69.6305Z" fill="#009A6E"/>
<path d="M7.57096 69.6894C8.04962 69.649 8.48657 69.6714 8.92983 69.8712C8.99966 69.9027 9.06772 69.9376 9.13401 69.976C9.20031 70.0143 9.2645 70.0559 9.32658 70.1007C9.38866 70.1455 9.44832 70.1934 9.50555 70.2443C9.56279 70.2952 9.61731 70.3489 9.66911 70.4053C9.72091 70.4616 9.76973 70.5205 9.81557 70.5819C9.86142 70.6432 9.90405 70.7067 9.94347 70.7723C9.98289 70.8381 10.0189 70.9056 10.0515 70.9748C10.084 71.0441 10.113 71.1149 10.1385 71.1872C10.1645 71.2599 10.1868 71.3339 10.2054 71.4089C10.224 71.4839 10.2388 71.5597 10.2498 71.6362C10.2608 71.7127 10.268 71.7895 10.2713 71.8667C10.2746 71.9439 10.2741 72.0211 10.2697 72.0983C10.2653 72.1754 10.257 72.2522 10.2449 72.3286C10.2329 72.4049 10.217 72.4805 10.1973 72.5552C10.1777 72.6299 10.1543 72.7035 10.1273 72.776C10.1003 72.8483 10.0698 72.9192 10.0356 72.9886C9.69064 73.6912 9.11623 74.041 8.39923 74.2739C7.92605 74.3341 7.51852 74.3029 7.07515 74.1134C7.00147 74.0824 6.92952 74.0478 6.85931 74.0095C6.7891 73.9713 6.72098 73.9296 6.65494 73.8846C6.58891 73.8396 6.52529 73.7913 6.46409 73.7398C6.40289 73.6883 6.34441 73.634 6.28866 73.5767C6.2329 73.5194 6.18016 73.4594 6.13041 73.3968C6.08066 73.3343 6.03416 73.2694 5.99093 73.2022C5.94769 73.1349 5.90792 73.0657 5.87161 72.9945C5.83531 72.9232 5.80265 72.8504 5.77365 72.7758C5.55288 72.2074 5.55476 71.5629 5.82355 71.0108C6.18454 70.2695 6.83108 69.9438 7.57096 69.6894Z" fill="#009A6E"/>
<path d="M16.64 39.3157C17.0705 39.2951 17.4666 39.2923 17.8727 39.458C17.9107 39.4734 17.9482 39.4899 17.9854 39.5073C18.0225 39.5249 18.0591 39.5433 18.0952 39.5626C18.1314 39.582 18.167 39.6023 18.2021 39.6235C18.2372 39.6447 18.2718 39.6668 18.3057 39.6899C18.3396 39.7128 18.3729 39.7367 18.4055 39.7614C18.4383 39.7862 18.4703 39.8118 18.5017 39.8382C18.533 39.8647 18.5637 39.8919 18.5937 39.9199C18.6236 39.948 18.6528 39.9767 18.6813 40.0063C18.7097 40.0358 18.7374 40.066 18.7643 40.097C18.7911 40.128 18.8171 40.1597 18.8423 40.192C18.8675 40.2244 18.8919 40.2573 18.9155 40.2909C18.939 40.3245 18.9616 40.3586 18.9832 40.3934C19.005 40.4283 19.0258 40.4636 19.0457 40.4994C19.0655 40.5353 19.0845 40.5717 19.1025 40.6086C19.1205 40.6454 19.1375 40.6827 19.1535 40.7205C19.1696 40.7582 19.1846 40.7963 19.1987 40.8348C19.2262 40.9071 19.2501 40.9806 19.2704 41.0553C19.2906 41.13 19.3071 41.2054 19.3199 41.2817C19.3326 41.358 19.3416 41.4348 19.3468 41.5121C19.352 41.5892 19.3534 41.6665 19.3508 41.7438C19.3484 41.8212 19.3421 41.8982 19.332 41.9749C19.3219 42.0516 19.3079 42.1276 19.2902 42.203C19.2726 42.2782 19.2513 42.3525 19.2262 42.4257C19.2013 42.4989 19.1728 42.5707 19.1406 42.6412C18.8132 43.3554 18.2578 43.7089 17.5444 43.9553C17.0539 44.0221 16.5788 43.9855 16.1233 43.7801C16.0526 43.7489 15.9836 43.7142 15.9163 43.676C15.849 43.6379 15.7838 43.5964 15.7207 43.5516C15.6577 43.5068 15.5971 43.459 15.5389 43.4081C15.4806 43.3572 15.425 43.3035 15.3723 43.247C15.3195 43.1905 15.2697 43.1315 15.2228 43.0699C15.176 43.0083 15.1324 42.9446 15.092 42.8787C15.0516 42.8127 15.0147 42.7448 14.9812 42.6752C14.9476 42.6055 14.9177 42.5343 14.8913 42.4616C14.67 41.8515 14.7057 41.1296 15.0034 40.5509C15.3561 39.8658 15.9329 39.5346 16.64 39.3157Z" fill="#009A6E"/>
<path d="M126.525 39.322C126.951 39.2811 127.365 39.2975 127.767 39.4554C127.806 39.4702 127.844 39.486 127.882 39.5028C127.919 39.5197 127.957 39.5375 127.993 39.5563C128.03 39.575 128.066 39.5947 128.102 39.6155C128.138 39.6361 128.173 39.6577 128.208 39.6802C128.243 39.7027 128.277 39.726 128.31 39.7503C128.343 39.7746 128.376 39.7997 128.408 39.8257C128.441 39.8518 128.472 39.8786 128.503 39.9061C128.533 39.9338 128.563 39.9622 128.592 39.9915C128.622 40.0207 128.65 40.0506 128.678 40.0812C128.705 40.112 128.732 40.1434 128.758 40.1754C128.784 40.2075 128.81 40.2403 128.834 40.2737C128.858 40.3071 128.882 40.3411 128.904 40.3758C128.927 40.4104 128.948 40.4456 128.969 40.4814C128.99 40.5172 129.009 40.5534 129.028 40.5901C129.047 40.627 129.065 40.6642 129.082 40.7019C129.099 40.7397 129.114 40.7779 129.129 40.8164C129.157 40.8881 129.181 40.9611 129.201 41.0352C129.221 41.1094 129.237 41.1843 129.249 41.2601C129.262 41.3359 129.27 41.4121 129.275 41.4887C129.279 41.5654 129.28 41.6422 129.277 41.7189C129.274 41.7956 129.267 41.872 129.256 41.948C129.245 42.024 129.23 42.0993 129.211 42.1737C129.192 42.2482 129.17 42.3216 129.144 42.3938C129.117 42.466 129.088 42.5367 129.054 42.6059C128.724 43.2998 128.15 43.7016 127.44 43.9422C126.913 44.0149 126.41 43.9823 125.924 43.7491C125.857 43.7168 125.792 43.6812 125.729 43.6424C125.665 43.6036 125.604 43.5617 125.545 43.5167C125.485 43.4717 125.428 43.4238 125.374 43.3731C125.319 43.3225 125.268 43.2692 125.218 43.2134C125.169 43.1575 125.123 43.0993 125.08 43.0387C125.036 42.9782 124.996 42.9157 124.959 42.8511C124.922 42.7866 124.889 42.7204 124.858 42.6525C124.828 42.5846 124.801 42.5153 124.777 42.4447C124.764 42.4056 124.752 42.3662 124.741 42.3266C124.73 42.2869 124.72 42.247 124.711 42.2069C124.703 42.1667 124.695 42.1263 124.688 42.0857C124.681 42.0452 124.675 42.0045 124.67 41.9636C124.665 41.9227 124.662 41.8818 124.659 41.8407C124.656 41.7997 124.654 41.7585 124.654 41.7174C124.653 41.6762 124.654 41.6351 124.655 41.5939C124.657 41.5528 124.659 41.5117 124.663 41.4707C124.666 41.4298 124.671 41.3889 124.676 41.3481C124.682 41.3073 124.689 41.2667 124.696 41.2263C124.704 41.1858 124.713 41.1456 124.723 41.1057C124.732 41.0657 124.743 41.026 124.755 40.9866C124.767 40.9471 124.78 40.908 124.793 40.8693C124.807 40.8305 124.822 40.792 124.838 40.754C124.853 40.716 124.87 40.6784 124.888 40.6412C124.905 40.604 124.924 40.5673 124.943 40.5311C125.301 39.8648 125.834 39.5482 126.525 39.322Z" fill="#009A6E"/>
<path d="M135.753 84.31C136.187 84.2695 136.59 84.2798 136.997 84.455C137.035 84.4712 137.072 84.4884 137.109 84.5065C137.146 84.5246 137.183 84.5436 137.219 84.5636C137.255 84.5835 137.29 84.6044 137.325 84.6263C137.36 84.6481 137.395 84.6708 137.428 84.6943C137.462 84.718 137.495 84.7424 137.528 84.7676C137.56 84.7929 137.592 84.8191 137.623 84.8461C137.655 84.873 137.685 84.9007 137.715 84.9292C137.745 84.9577 137.774 84.9869 137.802 85.0169C137.83 85.0469 137.858 85.0776 137.884 85.109C137.911 85.1405 137.937 85.1726 137.962 85.2054C137.987 85.2381 138.011 85.2715 138.034 85.3055C138.057 85.3394 138.08 85.374 138.101 85.4091C138.123 85.4443 138.143 85.48 138.163 85.5162C138.183 85.5523 138.202 85.5891 138.219 85.6263C138.237 85.6634 138.254 85.701 138.27 85.7391C138.286 85.7771 138.3 85.8156 138.314 85.8544C138.339 85.927 138.361 86.0007 138.379 86.0754C138.397 86.1502 138.411 86.2257 138.421 86.3018C138.432 86.378 138.438 86.4544 138.441 86.5312C138.444 86.608 138.444 86.6848 138.439 86.7615C138.434 86.8382 138.426 86.9145 138.414 86.9905C138.402 87.0663 138.386 87.1415 138.367 87.2159C138.347 87.2902 138.324 87.3635 138.298 87.4355C138.271 87.5076 138.241 87.5783 138.208 87.6475C137.864 88.3635 137.29 88.7182 136.566 88.9603C136.121 89.0167 135.702 88.9855 135.285 88.811C135.247 88.7951 135.209 88.7781 135.171 88.7602C135.134 88.7423 135.097 88.7234 135.061 88.7036C135.024 88.6837 134.988 88.6629 134.953 88.6413C134.918 88.6195 134.883 88.5969 134.849 88.5733C134.815 88.5499 134.781 88.5255 134.749 88.5002C134.716 88.475 134.683 88.4489 134.652 88.4219C134.62 88.395 134.59 88.3672 134.56 88.3386C134.53 88.3101 134.5 88.2808 134.472 88.2507C134.443 88.2207 134.416 88.1899 134.389 88.1584C134.362 88.1269 134.336 88.0947 134.31 88.0618C134.285 88.0288 134.261 87.9953 134.237 87.9612C134.214 87.9271 134.191 87.8923 134.17 87.857C134.148 87.8217 134.127 87.7858 134.107 87.7494C134.088 87.713 134.069 87.6762 134.051 87.6388C134.033 87.6013 134.016 87.5635 134 87.5253C133.984 87.487 133.969 87.4484 133.955 87.4093C133.929 87.3367 133.906 87.263 133.887 87.1882C133.868 87.1133 133.853 87.0376 133.842 86.9612C133.83 86.8848 133.823 86.808 133.82 86.7309C133.816 86.6536 133.817 86.5765 133.822 86.4994C133.826 86.4223 133.835 86.3456 133.848 86.2693C133.86 86.1931 133.876 86.1177 133.897 86.0432C133.917 85.9687 133.941 85.8954 133.969 85.8234C133.997 85.7513 134.028 85.6809 134.063 85.6121C134.425 84.8964 135.017 84.5432 135.753 84.31Z" fill="#009A6E"/>
<path d="M56.768 5.49969C57.2951 5.43102 57.7853 5.45576 58.2762 5.68112C58.3465 5.71388 58.4149 5.75004 58.4814 5.7896C58.548 5.82916 58.6124 5.87194 58.6748 5.91792C58.737 5.9639 58.7969 6.01286 58.8544 6.0648C58.9118 6.11674 58.9666 6.17141 59.0186 6.2288C59.0705 6.28619 59.1196 6.34601 59.1657 6.40828C59.2117 6.47055 59.2546 6.53496 59.2942 6.6015C59.3338 6.66803 59.37 6.73637 59.4029 6.8065C59.4357 6.87665 59.465 6.94825 59.4907 7.02131C59.6945 7.59246 59.6853 8.22673 59.4148 8.77432C59.0716 9.46893 58.4869 9.7741 57.7921 10.018C57.2595 10.0981 56.7364 10.0885 56.2399 9.85853C56.1699 9.82569 56.1019 9.78936 56.0357 9.74955C55.9694 9.70974 55.9054 9.66665 55.8436 9.62028C55.7818 9.57391 55.7225 9.52452 55.6657 9.47209C55.609 9.41966 55.5551 9.36446 55.504 9.30651C55.4529 9.24855 55.4049 9.18814 55.36 9.12527C55.315 9.0624 55.2733 8.9974 55.2351 8.93028C55.1968 8.86315 55.1621 8.79425 55.1309 8.72356C55.0997 8.65288 55.0722 8.58079 55.0483 8.50729C54.8554 7.91388 54.9284 7.26521 55.2154 6.71473C55.5591 6.05571 56.0867 5.72954 56.768 5.49969Z" fill="#009A6E"/>
<path d="M101.995 124.67C102.45 124.645 102.868 124.663 103.301 124.831C103.374 124.859 103.445 124.89 103.515 124.925C103.584 124.961 103.652 124.999 103.718 125.041C103.783 125.083 103.847 125.128 103.908 125.177C103.969 125.225 104.028 125.277 104.084 125.331C104.14 125.386 104.193 125.443 104.243 125.502C104.293 125.562 104.34 125.624 104.384 125.689C104.427 125.754 104.468 125.82 104.505 125.889C104.542 125.958 104.575 126.028 104.605 126.1C104.635 126.171 104.662 126.243 104.685 126.317C104.707 126.39 104.726 126.465 104.742 126.54C104.757 126.616 104.768 126.692 104.776 126.768C104.783 126.845 104.787 126.922 104.787 126.999C104.786 127.076 104.782 127.153 104.774 127.229C104.766 127.306 104.754 127.382 104.738 127.457C104.722 127.532 104.703 127.607 104.679 127.68C104.656 127.754 104.629 127.826 104.598 127.896C104.273 128.638 103.676 129.052 102.947 129.334C102.507 129.404 102.079 129.381 101.659 129.224C101.62 129.21 101.581 129.194 101.543 129.178C101.505 129.161 101.467 129.143 101.43 129.125C101.392 129.106 101.356 129.087 101.319 129.066C101.283 129.046 101.247 129.024 101.212 129.002C101.177 128.98 101.142 128.956 101.109 128.932C101.075 128.908 101.041 128.883 101.009 128.857C100.976 128.831 100.944 128.804 100.913 128.777C100.882 128.749 100.851 128.721 100.821 128.692C100.792 128.663 100.763 128.633 100.734 128.602C100.706 128.571 100.679 128.54 100.652 128.508C100.626 128.476 100.6 128.443 100.575 128.41C100.55 128.376 100.526 128.342 100.503 128.307C100.48 128.273 100.458 128.237 100.437 128.201C100.416 128.166 100.396 128.129 100.376 128.092C100.357 128.055 100.339 128.018 100.321 127.98C100.304 127.942 100.288 127.904 100.272 127.865C100.037 127.279 100.061 126.648 100.322 126.074C100.667 125.316 101.242 124.941 101.995 124.67Z" fill="#009A6E"/>
<path d="M71.7002 5.42758C72.2121 5.40543 72.6812 5.46054 73.1371 5.7111C73.7125 6.02741 74.1573 6.59206 74.313 7.23237C74.3306 7.30758 74.3444 7.38348 74.3542 7.46009C74.3641 7.53668 74.3702 7.61358 74.3723 7.6908C74.3744 7.76801 74.3726 7.84513 74.3669 7.92215C74.3612 7.99918 74.3517 8.07572 74.3382 8.15178C74.3248 8.22784 74.3075 8.30302 74.2864 8.37733C74.2653 8.45163 74.2405 8.52469 74.212 8.59649C74.1836 8.66828 74.1516 8.73846 74.116 8.80702C74.0804 8.87557 74.0414 8.94215 73.9991 9.00675C73.5988 9.62245 73.0482 9.88239 72.3596 10.0385C71.8089 10.0705 71.3213 10.0551 70.8247 9.78446C70.2845 9.49011 69.9102 8.97629 69.7468 8.38787C69.5828 7.79709 69.633 7.16257 69.9394 6.62614C70.3332 5.93684 70.965 5.62575 71.7002 5.42758Z" fill="#009A6E"/>
<path d="M7.65349 84.3123C8.12677 84.2878 8.57502 84.3467 9.00643 84.5543C9.08123 84.5902 9.15406 84.6297 9.22495 84.6728C9.29583 84.7159 9.36441 84.7624 9.43068 84.8123C9.49696 84.8622 9.56061 84.9153 9.62162 84.9715C9.68264 85.0277 9.74072 85.0868 9.79589 85.1487C9.85104 85.2107 9.903 85.2752 9.95177 85.3424C10.0005 85.4095 10.0459 85.4789 10.0877 85.5505C10.1296 85.6221 10.1679 85.6956 10.2025 85.771C10.2371 85.8464 10.2679 85.9233 10.2948 86.0018C10.3184 86.0703 10.3382 86.1398 10.3544 86.2104C10.3706 86.281 10.383 86.3523 10.3917 86.4243C10.4003 86.4962 10.4052 86.5684 10.4062 86.6409C10.4073 86.7133 10.4045 86.7856 10.3979 86.8577C10.3913 86.9299 10.3809 87.0015 10.3668 87.0726C10.3526 87.1437 10.3348 87.2138 10.3132 87.283C10.2917 87.3521 10.2665 87.4199 10.2378 87.4865C10.2091 87.553 10.177 87.6179 10.1414 87.681C9.77011 88.3503 9.13983 88.7334 8.42292 88.9401C7.89102 88.9764 7.45786 88.9812 6.96789 88.7434C6.93151 88.7255 6.89562 88.7066 6.86021 88.6867C6.8248 88.6669 6.78993 88.6462 6.7556 88.6247C6.72126 88.6031 6.6875 88.5807 6.65431 88.5573C6.62113 88.534 6.58858 88.5098 6.55665 88.4848C6.52471 88.4598 6.49343 88.434 6.46283 88.4074C6.43223 88.3808 6.40232 88.3534 6.37313 88.3252C6.34394 88.297 6.31549 88.2682 6.28778 88.2385C6.26008 88.2089 6.23316 88.1786 6.20702 88.1476C6.18088 88.1165 6.15555 88.0848 6.13104 88.0525C6.10654 88.0202 6.08288 87.9873 6.06007 87.9538C6.03726 87.9202 6.01533 87.8861 5.99427 87.8514C5.97323 87.8168 5.95308 87.7816 5.93383 87.7459C5.91459 87.7102 5.89629 87.674 5.87892 87.6374C5.86155 87.6007 5.84513 87.5636 5.82967 87.5261C5.8142 87.4886 5.79971 87.4507 5.7862 87.4125C5.77269 87.3742 5.76018 87.3357 5.74866 87.2968C5.72735 87.2248 5.70965 87.1519 5.69557 87.0782C5.68148 87.0045 5.67107 86.9302 5.66435 86.8555C5.65763 86.7807 5.65462 86.7058 5.65531 86.6308C5.65601 86.5557 5.66042 86.4808 5.66854 86.4062C5.67666 86.3316 5.68845 86.2575 5.7039 86.1841C5.71936 86.1106 5.73841 86.0381 5.76105 85.9666C5.7837 85.895 5.80982 85.8247 5.83943 85.7558C5.86905 85.6868 5.90199 85.6194 5.93828 85.5537C6.31947 84.8572 6.92008 84.5253 7.65349 84.3123Z" fill="#009A6E"/>
<path d="M71.7064 133.815C72.2417 133.781 72.8134 133.921 73.2694 134.206C73.3359 134.247 73.4002 134.291 73.4624 134.338C73.5245 134.385 73.5841 134.435 73.6412 134.489C73.6983 134.542 73.7527 134.598 73.8044 134.656C73.8559 134.715 73.9044 134.776 73.9499 134.839C73.9955 134.902 74.0378 134.968 74.0768 135.036C74.1158 135.103 74.1513 135.172 74.1835 135.244C74.2155 135.315 74.2441 135.387 74.269 135.461C74.2939 135.535 74.3151 135.61 74.3325 135.686C74.3494 135.76 74.3626 135.835 74.3719 135.911C74.3814 135.986 74.3871 136.062 74.3891 136.138C74.391 136.214 74.3891 136.29 74.3836 136.366C74.378 136.441 74.3686 136.517 74.3555 136.592C74.3424 136.666 74.3257 136.741 74.3053 136.814C74.2849 136.887 74.261 136.959 74.2334 137.03C74.2058 137.101 74.1749 137.17 74.1405 137.238C74.1061 137.306 74.0684 137.372 74.0274 137.436C73.6372 138.043 73.0679 138.33 72.3856 138.493C71.9097 138.535 71.4458 138.483 71.0069 138.284C70.9372 138.252 70.8693 138.217 70.8033 138.179C70.7372 138.14 70.6733 138.098 70.6115 138.053C70.5497 138.008 70.4904 137.959 70.4336 137.908C70.3768 137.857 70.3228 137.803 70.2716 137.746C70.2204 137.689 70.1723 137.63 70.1272 137.568C70.0821 137.506 70.0403 137.442 70.0017 137.376C69.9632 137.31 69.9282 137.242 69.8967 137.172C69.8652 137.102 69.8373 137.031 69.8131 136.958C69.7996 136.919 69.7872 136.88 69.7757 136.841C69.7642 136.802 69.7538 136.762 69.7444 136.722C69.735 136.683 69.7267 136.642 69.7193 136.602C69.712 136.562 69.7058 136.521 69.7005 136.481C69.6953 136.44 69.6912 136.399 69.6881 136.359C69.685 136.318 69.6831 136.277 69.6822 136.236C69.6813 136.195 69.6814 136.154 69.6826 136.113C69.6838 136.072 69.686 136.031 69.6894 135.99C69.6928 135.95 69.6972 135.909 69.7026 135.868C69.7081 135.828 69.7147 135.787 69.7222 135.747C69.7298 135.707 69.7384 135.667 69.7482 135.627C69.7578 135.587 69.7685 135.548 69.7802 135.508C69.792 135.469 69.8047 135.43 69.8185 135.392C69.8323 135.353 69.847 135.315 69.8628 135.277C69.8786 135.239 69.8954 135.202 69.9131 135.165C69.9308 135.128 69.9495 135.092 69.9691 135.056C70.3581 134.352 70.966 134.033 71.7064 133.815Z" fill="#009A6E"/>
<path d="M7.33836 54.9297C7.88451 54.8745 8.35388 54.8547 8.86586 55.0856C8.93682 55.1173 9.00603 55.1525 9.07349 55.1911C9.14095 55.2296 9.20633 55.2714 9.26963 55.3165C9.33293 55.3616 9.39384 55.4098 9.45236 55.461C9.51088 55.512 9.56672 55.566 9.61989 55.6227C9.67304 55.6793 9.72326 55.7384 9.77054 55.8001C9.81781 55.8618 9.86191 55.9257 9.90284 55.9918C9.94376 56.0579 9.98131 56.1258 10.0155 56.1956C10.0497 56.2654 10.0803 56.3368 10.1073 56.4096C10.327 57.0144 10.284 57.7358 9.99612 58.3117C9.66475 58.9745 9.13695 59.2947 8.45796 59.5119C7.99699 59.5703 7.55187 59.5671 7.11146 59.4024C7.03318 59.3728 6.95658 59.3393 6.88167 59.302C6.80676 59.2647 6.73392 59.2237 6.66313 59.1791C6.59236 59.1345 6.52401 59.0864 6.45809 59.0348C6.39216 58.9832 6.329 58.9285 6.2686 58.8705C6.20819 58.8126 6.15086 58.7518 6.0966 58.6882C6.04233 58.6244 5.9914 58.5581 5.94381 58.4893C5.89623 58.4204 5.85223 58.3493 5.81182 58.2761C5.7714 58.2028 5.73478 58.1277 5.70193 58.0507C5.67198 57.9816 5.64565 57.9112 5.62295 57.8393C5.60024 57.7674 5.58128 57.6946 5.56608 57.6208C5.55087 57.547 5.53949 57.4727 5.53193 57.3978C5.52439 57.3228 5.5207 57.2476 5.52088 57.1724C5.52106 57.097 5.5251 57.0218 5.53302 56.9469C5.54093 56.872 5.55267 56.7977 5.56823 56.724C5.58379 56.6504 5.6031 56.5777 5.62615 56.5059C5.6492 56.4342 5.67586 56.3639 5.70615 56.2949C6.02825 55.565 6.62175 55.1943 7.33836 54.9297Z" fill="#009A6E"/>
<path d="M136.232 54.7979C136.707 54.8376 137.126 54.9821 137.51 55.2711C137.573 55.3192 137.634 55.3702 137.692 55.4242C137.75 55.4783 137.805 55.5351 137.858 55.5945C137.91 55.6541 137.959 55.716 138.006 55.7803C138.052 55.8447 138.095 55.9112 138.135 55.9799C138.175 56.0484 138.211 56.1188 138.244 56.1911C138.277 56.2633 138.307 56.3369 138.332 56.412C138.358 56.487 138.38 56.5631 138.398 56.6404C138.416 56.7176 138.43 56.7956 138.441 56.8742C138.452 56.9491 138.459 57.0245 138.463 57.1002C138.466 57.1759 138.466 57.2515 138.462 57.3272C138.458 57.4028 138.45 57.478 138.438 57.5529C138.426 57.6277 138.411 57.7018 138.392 57.7751C138.373 57.8484 138.35 57.9205 138.324 57.9915C138.297 58.0625 138.267 58.132 138.234 58.2C138.2 58.268 138.164 58.3342 138.124 58.3985C138.084 58.4628 138.04 58.5249 137.994 58.5848C137.481 59.2522 136.807 59.4599 136.012 59.5695C135.583 59.4907 135.193 59.3623 134.828 59.1182C134.267 58.7436 133.864 58.1691 133.762 57.4968C133.669 56.8823 133.849 56.2771 134.236 55.7941C134.757 55.143 135.434 54.8925 136.232 54.7979Z" fill="#009A6E"/>
<path d="M86.1643 5.42413C86.7721 5.379 87.3023 5.36996 87.8521 5.66944C87.9203 5.70739 87.9864 5.74853 88.0505 5.79286C88.1148 5.8372 88.1766 5.88452 88.2362 5.93484C88.2958 5.98514 88.3528 6.0382 88.4073 6.09401C88.4618 6.14983 88.5134 6.20814 88.5623 6.26894C88.6111 6.32974 88.6569 6.39276 88.6997 6.45798C88.7424 6.5232 88.782 6.59033 88.8183 6.65937C88.8546 6.7284 88.8875 6.79903 88.9169 6.87123C88.9464 6.94345 88.9723 7.01691 88.9947 7.09162C89.0163 7.16518 89.0342 7.23961 89.0486 7.31493C89.0628 7.39025 89.0733 7.46609 89.0802 7.54244C89.087 7.61879 89.0901 7.6953 89.0893 7.77195C89.0887 7.84861 89.0843 7.92505 89.0761 8.00127C89.068 8.07749 89.0561 8.15312 89.0404 8.22818C89.0248 8.30323 89.0056 8.37733 88.9826 8.45049C88.9597 8.52366 88.9333 8.59552 88.9034 8.6661C88.8735 8.73667 88.8402 8.8056 88.8034 8.8729C88.4655 9.48147 87.9064 9.86733 87.2467 10.0519C86.7846 10.0672 86.3481 10.0852 85.9059 9.92237C85.867 9.9084 85.8287 9.89342 85.7907 9.87743C85.7526 9.86144 85.715 9.84447 85.6779 9.82651C85.6408 9.80855 85.6042 9.78962 85.5681 9.76972C85.5319 9.74983 85.4963 9.729 85.4612 9.70724C85.4262 9.68548 85.3918 9.66282 85.358 9.63924C85.3241 9.61567 85.2909 9.59122 85.2583 9.5659C85.2258 9.54059 85.1939 9.51443 85.1627 9.48743C85.1315 9.46044 85.1011 9.43265 85.0714 9.40406C85.0417 9.37546 85.0127 9.34611 84.9845 9.31598C84.9563 9.28587 84.9289 9.25504 84.9024 9.22348C84.8758 9.19192 84.8501 9.15969 84.8253 9.12677C84.8004 9.09387 84.7764 9.06033 84.7533 9.02616C84.7302 8.99199 84.7081 8.95724 84.6868 8.9219C84.6655 8.88656 84.6452 8.85069 84.6258 8.81429C84.6063 8.77789 84.5879 8.741 84.5705 8.70362C84.5531 8.66625 84.5366 8.62844 84.5211 8.5902C84.4918 8.51998 84.4661 8.44843 84.4442 8.37555C84.4223 8.30268 84.4041 8.22888 84.3898 8.15414C84.3754 8.07939 84.365 8.00411 84.3584 7.92828C84.3519 7.85247 84.3492 7.77651 84.3505 7.70041C84.3519 7.62432 84.3571 7.54849 84.3662 7.47292C84.3753 7.39737 84.3882 7.32248 84.405 7.24826C84.4218 7.17404 84.4425 7.10088 84.4668 7.02879C84.4912 6.95669 84.5192 6.88605 84.5509 6.81685C84.8706 6.10843 85.4494 5.67745 86.1643 5.42413Z" fill="#009A6E"/>
<path d="M56.6841 133.754C57.206 133.683 57.6821 133.723 58.1643 133.95C58.7762 134.239 59.2736 134.781 59.4914 135.423C59.5162 135.496 59.5372 135.57 59.5544 135.645C59.5717 135.721 59.5851 135.797 59.5946 135.873C59.6042 135.95 59.6099 136.027 59.6118 136.104C59.6136 136.181 59.6115 136.258 59.6055 136.335C59.5995 136.412 59.5897 136.488 59.5761 136.564C59.5624 136.64 59.5449 136.715 59.5237 136.79C59.5025 136.864 59.4775 136.937 59.4489 137.008C59.4203 137.08 59.3882 137.15 59.3525 137.219C59.0348 137.836 58.4975 138.21 57.8547 138.433C57.3031 138.537 56.8117 138.545 56.2874 138.315C56.2175 138.284 56.1492 138.25 56.0827 138.212C56.0162 138.175 55.9517 138.134 55.8893 138.089C55.8269 138.045 55.7668 137.998 55.709 137.948C55.6514 137.897 55.5963 137.844 55.5439 137.789C55.4914 137.733 55.4419 137.675 55.3953 137.614C55.3486 137.554 55.3051 137.491 55.2648 137.426C55.2244 137.361 55.1873 137.294 55.1537 137.225C55.12 137.157 55.0898 137.086 55.0631 137.015C55.0342 136.937 55.0091 136.857 54.9879 136.777C54.9667 136.696 54.9495 136.615 54.9364 136.532C54.9232 136.45 54.9141 136.367 54.9091 136.284C54.9041 136.201 54.9031 136.118 54.9063 136.034C54.9094 135.951 54.9166 135.868 54.928 135.786C54.9393 135.703 54.9547 135.621 54.974 135.54C54.9934 135.459 55.0167 135.379 55.0439 135.301C55.0711 135.222 55.1022 135.145 55.137 135.069C55.4591 134.374 55.9987 134.024 56.6841 133.754Z" fill="#009A6E"/>
<path d="M86.5298 133.747C87.0791 133.752 87.5559 133.857 88.0118 134.177C88.5554 134.558 88.9169 135.171 89.0149 135.824C89.111 136.464 88.9615 137.147 88.5603 137.661C88.112 138.236 87.5081 138.467 86.8061 138.558C86.3708 138.551 85.9514 138.47 85.5661 138.261C85.4963 138.224 85.4287 138.183 85.363 138.138C85.2973 138.094 85.234 138.046 85.1732 137.995C85.1123 137.944 85.0542 137.891 84.9987 137.834C84.9432 137.777 84.8907 137.718 84.8412 137.656C84.7916 137.594 84.7452 137.53 84.7021 137.463C84.6591 137.397 84.6194 137.328 84.5831 137.257C84.5469 137.187 84.5143 137.115 84.4852 137.041C84.4563 136.967 84.4311 136.892 84.4096 136.816C84.2375 136.212 84.3213 135.588 84.6409 135.048C85.0622 134.336 85.7406 133.93 86.5298 133.747Z" fill="#009A6E"/>
<path d="M73.0197 109.929L78.1224 109.925L78.1253 119.43C77.3193 120.237 76.5012 121.031 75.671 121.813C74.8199 122.676 73.9473 123.516 73.0534 124.333L73.0364 115.932C73.0271 113.933 72.9813 111.928 73.0197 109.929Z" fill="#009A6E"/>
<path d="M70.9906 19.2594C71.1844 19.5474 71.0625 32.3532 71.0466 33.7514L66.0288 33.7454C66.0212 33.7396 66.0145 33.7323 66.0057 33.7279C65.9883 33.7193 65.9693 33.714 65.9512 33.7071C65.7841 33.0822 65.9142 31.7569 65.9155 31.0472L65.9387 24.3825C67.4896 22.5692 69.533 21.1148 70.9906 19.2594Z" fill="#009A6E"/>
<path d="M110.112 72.9499C111.924 72.8841 113.75 72.9252 115.564 72.9267L124.804 72.9245C123.895 73.7948 123.041 74.7308 122.136 75.6096C121.3 76.4612 120.447 77.295 119.577 78.1111L110.069 78.1166C110.063 77.3481 109.903 73.395 110.112 72.9499Z" fill="#009A6E"/>
<path d="M65.8171 109.901C67.552 109.904 69.2883 109.857 71.0225 109.912L71.0824 124.462C69.2744 122.83 67.5178 121.065 65.7955 119.34L65.8171 109.901Z" fill="#009A6E"/>
<path d="M73.0003 19.2337C73.5733 19.5767 77.7943 23.7673 78.2962 24.3629C78.2801 27.4823 78.2867 30.6017 78.316 33.7212C77.7229 33.8157 77.0293 33.7615 76.4271 33.7605L72.9896 33.7499C72.9641 31.3523 72.9966 28.9527 72.9927 26.5548C72.9887 24.1159 72.9491 21.672 73.0003 19.2337Z" fill="#009A6E"/>
<path d="M19.574 72.9464L33.8847 72.9139C34.0116 74.5016 34.04 76.2271 33.955 77.8164C33.9442 78.0183 33.9761 78.0819 33.8276 78.2172L24.3184 78.1936C23.5807 77.4824 19.6037 73.6767 19.4183 73.027L19.574 72.9464Z" fill="#009A6E"/>
<path d="M114.769 65.6357L119.447 65.6245C121.056 67.5762 123.102 69.1754 124.804 71.0502C123.258 71.084 121.705 71.0585 120.159 71.0596L110.047 71.0812C110.042 69.2764 110.047 67.4716 110.061 65.667C111.626 65.616 113.202 65.6435 114.769 65.6357Z" fill="#009A6E"/>
<path d="M24.4031 65.7042C27.5843 65.5754 30.8257 65.6414 34.0103 65.6925C34.0585 67.4578 33.9937 69.2392 33.9683 71.0054C32.2225 71.0789 30.4698 71.054 28.7227 71.0587L19.1344 71.0495C20.8994 69.2823 22.5741 67.4049 24.4031 65.7042Z" fill="#009A6E"/>
<path d="M61.5254 35.683L99.0481 35.7192C99.9941 36.7145 101.018 37.6277 101.992 38.594C104.03 40.6146 106.05 42.649 108.133 44.6237C108.027 51.7252 108.152 58.8357 108.13 65.9385L108.133 86.3708C108.126 90.5605 108.144 94.75 108.186 98.9391C107.127 100.277 105.798 101.436 104.586 102.636C102.753 104.453 100.964 106.296 99.0575 108.039C97.127 107.976 95.1941 108.002 93.2629 107.99L83.0742 107.942L44.747 107.864C43.9151 107.132 43.165 106.269 42.3744 105.49L35.9311 99.1178L35.9333 44.6176C36.9423 43.656 37.8769 42.6286 38.8558 41.6379C40.8291 39.6409 42.84 37.6404 44.8741 35.706L61.5254 35.683Z" fill="#009A6E"/>
<path d="M54.7875 44.4307L88.8719 44.432C90.0877 45.3738 91.1981 46.5951 92.2825 47.6851C93.6536 49.0565 95.0324 50.42 96.419 51.7757C97.4291 52.7626 98.4224 53.768 99.5068 54.6739L99.5553 89.2966C98.3135 90.6467 96.9504 91.9128 95.6597 93.2198C93.5543 95.3521 91.4714 97.5284 89.2935 99.5861C77.8002 99.7109 66.2926 99.6553 54.7985 99.6124C52.4846 97.2391 50.074 94.9476 47.7432 92.5872C46.6668 91.4972 45.54 90.4244 44.5697 89.2382L44.5229 54.7957C45.9772 53.2185 47.5492 51.7213 49.0598 50.1967C50.948 48.2537 52.8572 46.3317 54.7875 44.4307Z" fill="#009A6E"/>
<path d="M60.6534 51.5739L86.3523 51.5697C88.1886 53.6491 90.4469 55.3853 92.175 57.5518L92.1597 76.7784C92.1643 80.0845 92.2525 83.4218 92.1275 86.7254C90.2673 88.6212 88.4642 90.5787 86.5129 92.3829C85.4851 92.42 84.4542 92.4076 83.4258 92.4093L57.4454 92.3955L53.9841 88.8751C53.2405 88.1132 52.4568 87.3641 51.7849 86.5378C51.7342 85.2674 51.7784 83.9787 51.7813 82.7063L51.7783 75.9644C51.7662 69.7693 51.6999 63.5683 51.7622 57.3736C53.7545 55.5176 55.5433 53.4542 57.5191 51.5863L60.6534 51.5739Z" fill="#009A6E"/>
<rect x="41.5188" y="41.5188" width="60.9624" height="60.9624" rx="6" fill="white" stroke="#009A6E" stroke-width="4"/>
<circle cx="50.0978" cy="93.9023" r="3.24812" fill="#009A6E"/>
<path d="M73.0909 72.3636C73.0909 74.8712 72.6212 77.0189 71.6818 78.8068C70.75 80.5871 69.4773 81.9508 67.8636 82.8977C66.2576 83.8447 64.4356 84.3182 62.3977 84.3182C60.3598 84.3182 58.5341 83.8447 56.9205 82.8977C55.3144 81.9432 54.0417 80.5758 53.1023 78.7955C52.1705 77.0076 51.7045 74.8636 51.7045 72.3636C51.7045 69.8561 52.1705 67.7121 53.1023 65.9318C54.0417 64.1439 55.3144 62.7765 56.9205 61.8295C58.5341 60.8826 60.3598 60.4091 62.3977 60.4091C64.4356 60.4091 66.2576 60.8826 67.8636 61.8295C69.4773 62.7765 70.75 64.1439 71.6818 65.9318C72.6212 67.7121 73.0909 69.8561 73.0909 72.3636ZM68.8523 72.3636C68.8523 70.5985 68.5758 69.1098 68.0227 67.8977C67.4773 66.678 66.7197 65.7576 65.75 65.1364C64.7803 64.5076 63.6629 64.1932 62.3977 64.1932C61.1326 64.1932 60.0152 64.5076 59.0455 65.1364C58.0758 65.7576 57.3144 66.678 56.7614 67.8977C56.2159 69.1098 55.9432 70.5985 55.9432 72.3636C55.9432 74.1288 56.2159 75.6212 56.7614 76.8409C57.3144 78.053 58.0758 78.9735 59.0455 79.6023C60.0152 80.2235 61.1326 80.5341 62.3977 80.5341C63.6629 80.5341 64.7803 80.2235 65.75 79.6023C66.7197 78.9735 67.4773 78.053 68.0227 76.8409C68.5758 75.6212 68.8523 74.1288 68.8523 72.3636ZM77.7017 84L87.5994 64.4091V64.25H76.1108V60.7273H91.9631V64.3295L82.0767 84H77.7017Z" fill="black"/>
</g>
<defs>
<clipPath id="clip0_54_8">
<rect width="144" height="144" fill="white"/>
</clipPath>
</defs>
</svg>
